<?xml version="1.0" standalone="no"?>
<!DOCTYPE svg PUBLIC "-//W3C//DTD SVG 20010904//EN"
 "http://www.w3.org/TR/2001/REC-SVG-20010904/DTD/svg10.dtd">
<svg version="1.0" xmlns="http://www.w3.org/2000/svg"
 width="1196.000000pt" height="897.000000pt" viewBox="0 0 1196.000000 897.000000"
 preserveAspectRatio="xMidYMid meet">
<metadata>
Created by potrace 1.16, written by Peter Selinger 2001-2019
</metadata>
<g transform="translate(0.000000,897.000000) scale(0.100000,-0.100000)"
fill="#000000" stroke="none">
<path d="M10585 8291 c-16 -4 -64 -28 -105 -53 -41 -24 -154 -91 -250 -148
-96 -57 -191 -113 -210 -125 -19 -13 -129 -78 -243 -146 -147 -87 -213 -131
-223 -151 -23 -45 -18 -102 13 -140 35 -42 244 -280 259 -293 6 -5 57 -63 114
-127 57 -65 106 -118 109 -118 4 0 17 7 29 16 12 8 32 21 45 27 12 7 59 34
104 61 93 56 92 47 12 133 -24 27 -111 124 -193 217 -125 141 -147 170 -135
181 35 32 178 106 192 98 7 -4 83 -87 168 -183 85 -96 174 -197 199 -223 l45
-48 60 35 c33 19 93 53 133 76 l72 41 -89 102 c-49 56 -141 160 -205 231 -64
71 -116 134 -116 140 0 6 30 28 68 48 37 21 80 46 95 55 l28 18 48 -50 c26
-27 115 -126 198 -220 82 -93 157 -176 166 -184 15 -12 28 -6 104 39 49 29
104 62 123 73 19 10 38 21 43 24 7 4 -26 43 -267 314 -161 181 -226 248 -256
263 -33 18 -98 25 -135 17z"/>
<path d="M11685 7741 c-38 -21 -180 -106 -315 -188 -459 -281 -1144 -689
-1430 -853 -317 -181 -575 -331 -632 -367 l-38 -23 -57 39 c-32 21 -86 53
-120 70 -49 24 -63 36 -68 59 -9 43 -404 491 -457 518 -46 24 -109 28 -152 10
-22 -9 -159 -88 -306 -176 l-267 -159 -159 2 c-145 2 -170 -1 -279 -27 -190
-45 -293 -110 -516 -323 -109 -105 -167 -180 -220 -283 l-33 -65 -12 110 c-15
136 -50 249 -120 386 -68 133 -136 209 -264 294 -175 117 -307 152 -535 141
-154 -7 -191 -16 -231 -57 l-29 -30 -105 6 c-65 5 -128 3 -165 -4 -127 -24
-304 -166 -364 -291 -22 -47 -26 -68 -26 -145 1 -49 4 -102 8 -117 6 -24 4
-28 -17 -34 -33 -8 -82 20 -94 53 -13 39 -58 91 -96 110 -74 38 -307 33 -396
-9 -25 -12 -76 -53 -115 -93 -38 -39 -84 -77 -102 -84 -45 -18 -121 -102 -172
-189 -53 -91 -79 -205 -87 -382 -10 -212 41 -581 101 -724 9 -21 15 -40 13
-41 -2 -2 -30 15 -63 37 -137 92 -214 118 -356 118 -136 0 -204 -24 -288 -104
-73 -70 -100 -121 -101 -189 0 -53 30 -150 56 -178 16 -18 16 -23 -4 -91 -37
-127 -45 -203 -38 -343 4 -71 11 -150 16 -175 4 -25 11 -61 15 -80 l6 -35
-171 -100 c-95 -55 -187 -113 -206 -128 -40 -34 -59 -91 -44 -132 10 -26 126
-163 314 -369 45 -49 86 -97 93 -106 21 -30 78 -50 140 -50 48 0 68 5 104 28
89 58 218 132 229 132 6 0 32 -14 57 -31 37 -26 43 -33 31 -45 -7 -7 -88 -55
-179 -107 -149 -85 -346 -208 -704 -437 -239 -154 -949 -594 -1335 -828 -644
-390 -816 -498 -849 -531 -26 -26 -27 -75 -2 -100 13 -13 40 -20 92 -25 41 -3
175 -15 299 -26 124 -11 362 -29 530 -40 521 -36 1479 -105 1995 -145 409 -31
694 -47 768 -43 58 3 60 2 105 -41 59 -57 188 -118 374 -175 166 -51 317 -72
453 -61 84 7 199 38 226 61 8 8 22 14 30 14 8 0 20 9 26 20 7 10 31 25 54 32
39 11 43 10 60 -11 11 -13 19 -31 19 -41 0 -26 99 -114 168 -149 161 -81 385
-111 581 -77 75 13 101 14 129 5 54 -18 193 -5 292 26 99 31 185 77 277 146
60 46 68 49 97 40 36 -11 465 -30 743 -34 l191 -2 27 25 c25 24 291 537 305
590 5 21 13 25 46 28 21 1 91 16 154 32 319 82 522 197 808 460 113 103 184
189 245 295 54 94 107 223 107 259 0 18 9 30 31 41 70 37 105 221 60 320 -24
53 -101 121 -162 142 l-48 17 69 72 c75 79 127 174 155 282 12 48 24 71 50 93
64 56 74 93 74 279 -1 193 -12 289 -46 382 l-24 68 212 418 c204 402 388 764
566 1112 47 91 213 417 370 725 157 308 397 778 533 1045 136 267 250 494 253
505 4 12 -1 33 -13 53 -26 43 -57 42 -145 -7z m-235 -636 c0 -8 -83 -170 -90
-175 -4 -3 -13 -20 -21 -37 -8 -18 -18 -33 -22 -33 -5 0 -6 -4 -3 -9 4 -5 -6
-24 -21 -42 -16 -18 -23 -30 -16 -26 6 4 0 -13 -13 -38 -15 -25 -30 -42 -36
-39 -7 4 -8 2 -4 -5 4 -6 2 -19 -6 -28 -9 -12 -9 -15 0 -9 6 4 12 4 12 1 0 -3
-38 -77 -84 -163 -46 -86 -192 -369 -323 -627 -132 -259 -272 -529 -310 -600
-38 -72 -116 -220 -173 -330 -57 -110 -180 -348 -275 -530 -95 -181 -180 -345
-189 -363 l-17 -33 -66 98 c-75 113 -106 149 -148 170 -16 9 -46 30 -66 48
-53 48 -113 80 -204 110 -44 15 -81 28 -83 30 -1 1 11 29 27 62 52 104 66 186
66 383 0 165 -2 179 -28 253 -25 71 -72 157 -90 165 -4 2 -4 9 -1 14 5 8 -7 9
-37 3 -24 -4 -51 -8 -59 -9 -8 -2 -31 -12 -50 -24 -19 -13 -43 -21 -52 -18
-10 2 -18 1 -18 -4 0 -13 -221 -121 -233 -113 -7 3 -8 2 -4 -3 4 -4 -11 -18
-35 -29 -24 -12 -84 -43 -135 -69 -51 -26 -97 -45 -103 -41 -5 3 -10 2 -10 -4
0 -6 -15 -18 -32 -27 l-33 -17 25 25 c43 42 288 238 298 238 5 0 15 7 22 15 7
9 19 14 26 11 8 -3 13 -2 11 3 -1 5 23 27 53 49 30 23 60 45 65 50 6 5 17 6
24 4 8 -3 11 0 7 6 -6 10 30 28 47 24 5 -1 6 2 3 7 -4 5 -2 12 4 16 5 3 10 2
10 -3 0 -12 38 -3 47 11 4 6 -2 8 -17 4 l-22 -6 23 25 c12 13 24 22 27 20 2
-2 11 2 20 9 55 44 112 84 131 90 11 3 21 10 21 15 0 5 7 7 15 3 9 -3 15 -1
13 5 -4 14 85 78 89 65 3 -7 12 -7 28 1 14 6 23 16 22 21 -2 6 14 24 37 40 38
29 55 32 48 10 -2 -5 8 1 22 14 14 14 24 27 21 29 -7 7 16 33 24 28 4 -3 7 4
8 14 1 11 -2 22 -8 25 -5 3 -6 0 -3 -8 3 -8 1 -18 -4 -21 -5 -3 -12 2 -14 12
-8 31 -12 37 -30 52 -25 21 -29 65 -6 64 10 -1 15 2 12 7 -3 5 7 14 21 19 15
6 41 21 59 35 18 14 36 25 40 25 5 0 21 9 37 21 25 18 32 19 47 8 14 -11 15
-11 5 1 -15 16 -17 34 -4 25 5 -3 12 -1 15 4 15 23 99 61 124 54 18 -4 23 -3
18 6 -4 6 -12 9 -17 6 -5 -4 -9 -2 -9 4 0 5 9 12 19 16 11 3 52 28 92 55 40
27 75 47 78 44 3 -3 -1 -9 -9 -14 -17 -11 -9 -13 14 -4 8 3 12 12 9 20 -5 13
7 18 36 15 7 -2 10 2 7 8 -4 5 -2 13 4 16 6 4 9 1 8 -6 -2 -6 3 -14 10 -16 7
-3 12 -1 11 4 -5 28 4 43 28 49 15 4 36 16 47 26 11 10 25 18 30 18 6 0 4 -5
-4 -10 -12 -8 -11 -10 6 -10 12 0 27 7 34 15 10 12 9 15 -6 15 -16 0 -16 2 -4
10 9 5 17 5 20 0 7 -11 50 -1 50 11 0 5 -4 9 -10 9 -5 0 -10 5 -10 11 0 6 6 9
14 6 8 -3 20 1 26 9 7 8 19 14 26 14 8 0 14 5 14 10 0 6 7 10 16 10 9 0 24 8
33 19 9 10 26 21 39 25 12 4 20 11 17 16 -3 4 5 6 17 3 19 -4 20 -3 8 6 -13 9
-12 11 3 11 10 0 27 9 39 20 12 11 28 20 35 20 7 0 13 4 13 9 0 10 60 37 73
33 5 -1 6 1 4 5 -3 5 24 24 59 43 35 19 64 38 64 42 0 4 9 8 19 8 10 0 21 7
25 15 3 8 12 15 20 15 21 0 67 26 59 33 -10 10 32 8 60 -2 22 -9 28 -6 51 29
14 22 26 42 26 46 0 11 45 43 61 44 9 0 27 8 40 18 13 10 36 24 52 31 15 8 27
18 27 23 0 4 7 8 16 8 9 0 25 9 35 21 9 11 20 20 23 20 20 -3 26 0 21 8 -3 6
3 14 12 20 19 11 43 14 43 6z m-5522 -300 c100 -17 158 -42 275 -119 105 -70
157 -128 230 -261 66 -121 105 -240 118 -360 5 -49 12 -103 15 -120 5 -30 3
-31 -185 -143 -105 -62 -198 -115 -206 -118 -8 -4 -15 -10 -15 -16 0 -5 48
-63 108 -129 59 -67 110 -126 113 -132 4 -7 -2 -61 -12 -122 -18 -105 -33
-257 -60 -610 -7 -92 -10 -249 -7 -369 l5 -208 -26 -32 c-71 -86 -192 -219
-355 -387 -322 -330 -403 -437 -333 -440 62 -3 106 6 192 36 52 19 102 38 112
43 35 18 144 35 154 25 7 -7 1 -33 -17 -79 -45 -118 -37 -229 23 -295 28 -31
42 -39 70 -39 138 0 148 322 14 461 -34 36 -55 49 -75 49 -33 0 -228 -56 -268
-76 -66 -34 -46 -9 220 265 341 353 366 378 381 383 12 3 12 23 2 125 -15 164
-14 364 3 530 8 76 20 208 26 294 10 146 34 326 44 336 7 8 206 -220 206 -236
0 -9 -11 -51 -25 -94 -40 -124 -55 -244 -65 -512 -15 -387 -14 -380 -43 -422
-42 -63 -184 -202 -334 -327 -189 -156 -192 -185 -12 -130 46 14 110 26 142
27 53 2 61 -1 82 -25 60 -70 37 -265 -80 -653 -21 -71 -26 -104 -22 -157 l4
-67 -40 -27 c-22 -14 -59 -44 -82 -65 l-42 -39 -79 79 c-92 92 -182 152 -337
226 -249 119 -434 133 -678 50 l-101 -34 68 62 c209 187 244 228 290 326 46
97 70 187 101 376 14 88 18 169 18 397 l0 287 27 -26 27 -25 43 24 c24 14 80
47 126 73 91 52 102 63 81 79 -16 12 -381 424 -392 443 -5 7 36 38 118 87 70
42 130 76 134 76 4 0 18 -12 32 -26 l24 -25 -25 -19 c-14 -11 -60 -38 -102
-62 -43 -24 -78 -45 -78 -48 0 -3 23 -30 51 -60 l50 -55 39 23 c21 12 44 22
50 22 7 0 63 -30 126 -67 87 -51 114 -72 114 -88 -2 -140 -40 -346 -105 -565
-23 -80 -55 -188 -70 -240 -47 -159 -160 -398 -260 -550 -56 -85 -100 -133
-229 -249 -20 -18 -35 -39 -33 -45 7 -22 67 -17 160 13 146 47 215 57 284 41
75 -16 91 -25 209 -113 106 -79 260 -235 301 -304 26 -45 37 -52 46 -29 9 22
-46 106 -126 192 -64 68 -120 115 -327 272 -71 55 -176 61 -324 21 -38 -10
-71 -17 -73 -15 -3 2 21 32 51 66 134 150 291 447 364 686 113 374 144 514
168 757 l6 58 45 -26 c25 -14 51 -25 57 -25 9 0 156 82 244 137 23 14 18 18
-154 119 -98 57 -183 105 -189 107 -5 2 1 24 14 48 28 53 24 97 -14 148 -20
28 -23 41 -18 80 3 25 -5 123 -17 216 -12 94 -26 202 -30 242 -5 39 -13 89
-19 110 -6 21 -28 128 -50 238 -66 337 -154 537 -290 659 -11 11 -21 24 -21
31 0 18 53 63 80 68 60 11 281 6 358 -8z m-513 -74 c53 -24 158 -133 189 -196
84 -171 117 -274 155 -480 17 -88 39 -207 50 -265 11 -58 25 -150 31 -205 7
-55 18 -149 26 -208 20 -150 21 -147 -34 -91 -59 62 -121 84 -188 66 -24 -7
-101 -46 -170 -87 -70 -42 -127 -75 -129 -73 -1 2 -19 53 -39 113 -112 328
-287 696 -376 790 -47 49 -62 98 -67 227 -6 112 -5 119 20 171 48 96 180 211
282 243 62 20 202 17 250 -5z m3104 -117 c56 -64 101 -118 99 -119 -9 -10
-261 -155 -266 -154 -6 0 -65 66 -180 199 l-32 39 127 75 c71 42 133 76 139
76 7 0 57 -52 113 -116z m-748 -54 c10 -6 19 -19 19 -29 0 -18 35 -60 180
-221 42 -47 115 -128 161 -180 90 -100 117 -119 180 -127 22 -3 39 -9 39 -13
0 -3 -28 -31 -63 -62 -34 -30 -89 -89 -122 -129 -33 -41 -77 -95 -100 -120
-49 -55 -184 -218 -295 -354 -45 -55 -102 -123 -126 -152 -152 -179 -220 -275
-279 -396 -39 -80 -46 -103 -43 -143 3 -53 -1 -49 118 -99 95 -41 120 -66 128
-130 10 -95 -62 -232 -301 -569 -84 -117 -174 -245 -200 -282 -44 -64 -125
-162 -114 -139 2 6 19 42 36 80 18 39 54 104 80 145 27 41 81 131 121 200 40
69 111 186 157 260 135 215 158 292 106 350 -25 27 -39 32 -122 46 -52 8 -98
17 -102 20 -15 9 -10 99 10 155 48 139 200 407 346 609 144 200 262 356 279
369 9 8 23 26 31 41 13 26 37 42 228 154 l97 58 -31 37 c-122 139 -174 191
-188 186 -8 -3 -84 -47 -168 -97 -134 -79 -155 -88 -170 -77 -9 8 -80 86 -158
174 -78 88 -155 175 -172 193 l-30 34 -129 -78 c-71 -42 -130 -78 -132 -79 -3
-2 173 -202 395 -450 54 -60 114 -118 133 -127 37 -19 139 -25 156 -9 5 5 20
12 33 16 22 7 18 -1 -25 -56 -80 -101 -265 -365 -333 -473 -70 -111 -153 -274
-196 -381 -35 -88 -39 -183 -9 -216 27 -31 76 -49 133 -49 39 0 56 -6 80 -26
54 -45 43 -79 -101 -309 -343 -551 -569 -1022 -611 -1272 l-13 -76 -91 2 c-69
2 -105 -3 -153 -19 -41 -14 -66 -18 -73 -11 -5 5 -7 36 -5 68 4 45 23 96 85
233 127 277 178 450 172 594 -5 103 -15 116 -93 116 l-50 0 37 28 c57 42 221
224 236 260 12 28 12 42 1 87 -11 44 -11 72 0 147 30 228 199 632 338 813 101
131 247 289 298 321 68 43 84 68 84 125 0 39 -6 54 -35 89 -85 102 -143 159
-181 178 -42 21 -54 38 -54 72 0 25 -78 84 -148 111 -45 18 -81 23 -170 25
-63 1 -116 5 -119 7 -7 7 44 85 94 145 51 59 244 232 313 279 87 59 156 88
260 110 114 23 307 31 341 13z m1282 -236 c80 -41 135 -82 149 -112 7 -15 27
-34 44 -42 39 -19 147 -127 139 -139 -3 -6 -31 -24 -63 -42 -169 -94 -225
-127 -305 -182 -105 -70 -412 -298 -586 -435 -326 -255 -665 -625 -638 -695 9
-23 73 -32 137 -19 72 15 224 26 244 19 14 -6 14 -11 0 -49 -46 -132 -227
-378 -443 -603 -117 -121 -270 -294 -422 -475 -63 -74 -157 -180 -209 -235
-52 -55 -127 -138 -166 -185 -39 -47 -78 -91 -88 -99 -25 -21 -81 -129 -96
-184 -19 -72 -23 -49 -5 29 40 175 132 350 297 569 29 39 89 122 134 185 44
63 100 143 125 176 167 232 204 286 235 340 76 136 97 279 52 351 -22 37 -130
97 -195 109 -28 5 -33 10 -33 35 0 80 128 288 300 484 19 23 80 96 135 163 55
68 138 169 185 225 47 57 114 139 150 182 36 44 101 118 146 165 44 47 91 100
103 117 12 18 55 52 94 74 40 23 104 61 142 85 39 24 102 61 140 84 39 22 102
60 140 84 39 24 78 44 88 45 10 1 41 -11 70 -25z m-4552 6 l70 0 28 -63 c16
-35 41 -73 55 -84 37 -30 118 -48 155 -35 28 10 31 8 70 -41 56 -73 147 -226
194 -327 88 -191 247 -605 235 -614 -2 -2 -84 -51 -183 -109 -99 -58 -186
-110 -193 -114 -12 -8 26 -57 142 -183 42 -46 253 -282 296 -332 13 -15 24
-38 25 -50 1 -13 6 -42 10 -65 4 -24 4 -43 -1 -42 -5 0 -47 45 -94 99 -47 55
-89 99 -93 100 -5 0 -36 -16 -70 -36 -34 -20 -75 -44 -92 -54 -16 -9 -77 -45
-134 -79 l-104 -63 -29 30 -29 29 188 111 c103 61 194 115 202 119 10 7 1 22
-39 66 l-52 57 -31 -16 c-17 -9 -99 -57 -181 -106 -199 -120 -191 -116 -215
-87 -11 13 -20 27 -21 31 0 4 88 60 195 124 165 98 193 118 185 132 -5 10 -41
51 -79 92 -61 65 -71 73 -85 61 -9 -8 -18 -12 -19 -10 -2 2 -25 60 -52 129
-26 69 -77 181 -112 249 -70 137 -251 422 -335 528 -29 37 -74 97 -100 133
-52 74 -153 174 -186 184 -31 10 -27 25 9 33 17 3 37 17 47 32 27 43 116 126
156 145 37 17 158 37 184 30 8 -2 45 -4 83 -4z m-469 -269 c109 -69 457 -566
603 -860 69 -138 145 -316 145 -338 0 -6 -48 -39 -107 -74 -60 -34 -119 -70
-133 -80 -14 -9 -73 -44 -132 -79 -59 -34 -116 -73 -128 -85 -29 -31 -40 -84
-26 -122 6 -17 81 -109 166 -204 85 -95 175 -196 200 -225 62 -71 104 -94 175
-94 55 0 65 5 229 102 94 56 203 121 241 145 39 23 88 52 109 64 l39 21 -6
-238 c-10 -352 -40 -542 -110 -683 -39 -78 -55 -97 -214 -250 -95 -91 -175
-171 -177 -178 -3 -7 2 -19 10 -28 18 -18 27 -16 176 32 211 67 281 70 458 22
75 -20 266 -100 337 -141 87 -50 260 -207 251 -227 -2 -3 -22 -44 -46 -91 -42
-85 -62 -159 -62 -232 0 -33 -4 -40 -27 -49 -41 -15 -222 -23 -268 -11 -93 24
-339 149 -465 237 -143 100 -354 197 -470 216 -77 12 -141 6 -275 -28 -148
-37 -145 -37 -145 -22 0 18 61 117 119 194 83 111 148 180 241 255 132 107
149 123 152 145 4 29 -48 51 -170 71 -98 16 -111 16 -233 0 -150 -19 -326 -70
-449 -128 -47 -22 -101 -42 -120 -44 -64 -7 -174 24 -241 68 -73 47 -77 38 57
115 46 27 82 51 81 55 -2 6 -49 60 -173 197 l-30 34 -115 -68 -114 -67 -27 32
c-25 30 -124 238 -116 245 1 1 38 24 81 50 l77 47 -31 36 c-89 102 -118 132
-129 132 -7 0 -25 -8 -41 -17 -39 -23 -44 -16 -61 111 -19 148 -15 261 17 399
14 65 24 124 22 130 -5 15 87 35 162 36 127 2 483 -79 624 -142 37 -16 67 -33
67 -36 0 -4 -38 -29 -85 -56 -47 -27 -90 -52 -97 -56 -10 -6 -13 -128 -4 -176
2 -10 7 -77 11 -148 l7 -130 283 -99 282 -98 77 47 78 47 81 -78 c45 -43 109
-105 142 -138 33 -34 116 -103 185 -155 69 -52 126 -97 128 -101 1 -4 -32 -33
-74 -65 -80 -60 -435 -384 -491 -449 -33 -37 -44 -85 -20 -87 33 -3 87 4 137
16 66 16 163 31 329 51 130 15 180 11 326 -22 157 -37 298 -151 368 -297 21
-44 50 -95 65 -115 38 -50 108 -92 153 -92 70 0 82 56 33 160 -38 80 -67 115
-158 189 -183 149 -302 205 -521 246 -112 21 -216 23 -325 8 -47 -7 -116 -14
-153 -17 l-68 -5 21 27 c45 57 191 200 327 319 167 147 168 150 77 215 -121
86 -260 197 -300 239 -23 24 -73 75 -113 113 -39 39 -71 73 -71 76 0 3 15 14
33 25 l32 19 -73 22 c-40 13 -80 28 -88 35 -19 16 -178 225 -246 324 -173 253
-310 490 -403 700 -71 161 -107 376 -109 650 -1 184 16 300 56 380 31 60 99
155 112 155 7 0 33 -13 58 -29z m5402 -179 c20 -30 34 -58 31 -62 -3 -5 -36
-25 -73 -46 -63 -35 -186 -117 -497 -330 -190 -130 -218 -152 -464 -358 -185
-154 -207 -177 -214 -218 -7 -45 11 -62 57 -54 19 4 234 106 477 226 244 121
453 220 466 220 29 0 46 -27 75 -120 19 -64 23 -96 22 -215 0 -169 -20 -271
-73 -371 l-36 -69 -97 -7 c-123 -9 -245 -49 -395 -130 -129 -70 -231 -147
-289 -219 -25 -31 -59 -59 -90 -74 -69 -32 -160 -98 -267 -194 -50 -45 -155
-123 -232 -172 -281 -181 -418 -286 -604 -465 -157 -150 -286 -312 -347 -431
-26 -51 -48 -93 -50 -93 -2 0 -24 10 -49 22 -44 22 -53 35 -36 54 5 5 18 35
30 68 35 96 62 130 357 451 55 61 158 178 229 260 125 146 304 348 435 490
195 212 367 437 421 550 16 33 32 81 35 107 6 41 4 48 -19 62 -23 16 -34 15
-173 -8 -82 -14 -153 -21 -157 -17 -16 16 95 161 237 307 138 144 302 284 497
426 48 35 140 104 205 153 174 132 246 182 374 259 63 38 126 77 140 88 l25
20 6 -29 c3 -15 22 -52 43 -81z m-2596 -153 c2 -11 -21 -30 -68 -59 -38 -23
-70 -45 -70 -49 0 -3 22 -30 48 -60 l48 -55 63 39 62 39 24 -30 c13 -16 24
-31 25 -34 0 -3 -40 -29 -90 -58 l-90 -52 -33 37 c-136 152 -175 198 -172 203
6 10 140 87 160 93 39 10 90 3 93 -14z m371 -456 c-212 -219 -338 -442 -458
-815 -37 -115 -53 -294 -31 -347 11 -27 10 -35 -13 -73 -14 -24 -80 -99 -146
-167 -67 -68 -121 -127 -121 -131 0 -13 29 -19 84 -19 30 1 52 -4 57 -13 5 -7
9 -47 9 -89 0 -81 -40 -247 -98 -404 -48 -133 -79 -178 -48 -69 48 164 61 366
27 433 -37 71 -116 85 -251 45 -24 -7 -45 -12 -47 -10 -2 1 23 23 54 47 110
86 234 202 294 277 100 125 92 89 105 426 8 189 20 353 33 440 18 122 26 158
47 225 3 10 8 10 18 2 10 -8 40 5 127 57 287 172 402 240 409 241 2 1 -21 -25
-51 -56z m-3667 -348 c59 -15 158 -71 293 -165 73 -51 84 -63 125 -140 25 -47
60 -107 77 -135 18 -27 31 -51 29 -52 -2 -2 -37 13 -79 32 -95 44 -331 107
-507 136 -118 19 -145 20 -210 10 -124 -19 -126 -18 -144 36 -20 58 -20 106
-2 141 24 46 100 112 152 132 61 24 186 26 266 5z m5732 -537 c68 -10 210 -73
266 -118 l25 -20 -45 0 c-176 -2 -427 -99 -686 -263 -201 -128 -466 -363 -626
-557 -62 -74 -182 -209 -268 -300 -90 -94 -183 -204 -217 -255 -33 -49 -94
-130 -135 -180 -41 -49 -89 -112 -108 -140 -82 -121 -245 -300 -348 -382 -53
-42 -178 -110 -187 -101 -2 2 24 24 58 48 93 67 316 296 416 428 147 196 404
625 491 822 65 146 139 258 289 438 112 134 176 202 191 202 6 0 49 37 97 81
167 157 410 283 596 308 55 8 79 6 191 -11z m-5073 -153 c40 -60 107 -154 147
-208 41 -54 72 -100 70 -102 -7 -7 -262 76 -274 88 -10 10 -44 281 -44 342 0
17 2 17 14 5 7 -8 46 -64 87 -125z m5429 -25 c43 -43 157 -229 188 -306 55
-136 73 -212 79 -331 3 -62 3 -113 1 -113 -3 0 -31 15 -61 33 -34 21 -94 43
-154 58 -134 33 -368 33 -519 1 -290 -62 -608 -216 -895 -432 -133 -101 -197
-158 -492 -445 -248 -239 -503 -463 -515 -450 -2 2 25 38 60 79 36 42 98 124
138 183 41 60 108 149 148 198 41 50 102 131 135 180 34 51 130 164 221 260
89 94 202 219 251 279 118 143 131 156 260 273 392 352 771 548 1068 552 55 1
71 -3 87 -19z m-1419 -342 c-176 -214 -240 -311 -326 -490 -63 -132 -181 -348
-197 -363 -8 -7 -9 -6 -4 3 4 6 5 12 2 12 -2 0 -25 -30 -49 -67 -56 -84 -158
-204 -240 -282 -57 -55 -174 -151 -184 -151 -8 0 23 49 105 165 189 266 223
315 307 445 289 445 336 509 469 649 57 59 151 141 163 141 3 0 -18 -28 -46
-62z m-278 -161 c-17 -17 -56 -67 -87 -110 -47 -66 -69 -86 -133 -126 -306
-184 -743 -607 -793 -766 -17 -54 -23 -59 -46 -34 -19 21 -18 22 26 107 97
187 359 471 608 660 129 98 445 312 451 306 3 -2 -9 -19 -26 -37z m-4740 -181
c22 -46 54 -108 73 -136 19 -28 34 -53 34 -54 0 -1 -21 -13 -46 -26 l-45 -25
-20 24 c-11 13 -56 64 -102 113 -45 49 -83 93 -84 96 -2 6 135 92 147 92 3 0
22 -38 43 -84z m6489 -14 c86 -26 183 -70 203 -92 8 -9 18 -40 21 -67 7 -58
-10 -98 -61 -147 -23 -22 -37 -50 -50 -96 -46 -169 -155 -319 -260 -358 -44
-16 -64 -18 -88 -11 -59 17 -211 22 -335 10 -204 -20 -471 -105 -713 -227 -52
-26 -121 -57 -154 -70 -33 -12 -98 -39 -145 -59 -47 -20 -121 -52 -165 -70
-44 -18 -125 -53 -180 -77 -55 -24 -167 -66 -250 -92 -82 -26 -192 -61 -243
-78 -51 -16 -118 -32 -150 -35 l-57 -5 94 57 c169 101 360 258 536 438 55 57
111 110 380 359 50 45 119 106 153 133 35 28 84 67 110 88 87 69 276 176 457
258 181 82 301 122 420 139 44 6 96 15 115 20 60 16 286 4 362 -18z m-1985
-139 c-63 -97 -67 -101 -164 -161 -229 -140 -447 -335 -555 -495 -33 -49 -62
-87 -64 -84 -9 9 54 126 102 189 69 90 372 386 485 473 111 85 253 185 257
180 2 -1 -26 -47 -61 -102z m-143 -226 c-47 -72 -64 -89 -122 -122 -110 -64
-220 -152 -359 -289 -73 -71 -133 -125 -133 -119 0 5 29 50 64 99 59 83 235
259 344 343 60 47 244 171 254 171 4 0 -18 -37 -48 -83z m-2868 41 c55 -10 64
-14 64 -33 0 -27 -44 -89 -126 -178 -107 -116 -220 -271 -313 -428 -21 -37
-22 -42 -8 -56 14 -15 24 -13 109 11 243 70 236 68 353 63 155 -7 251 -47 495
-207 30 -20 98 -58 150 -85 52 -26 100 -52 106 -56 36 -28 198 -82 274 -91 81
-9 190 -2 231 16 14 6 20 -3 34 -44 10 -29 30 -66 45 -83 79 -91 79 -167 3
-316 -27 -53 -60 -103 -76 -115 -16 -12 -54 -52 -85 -91 -31 -38 -111 -126
-178 -195 -67 -69 -135 -141 -153 -161 -106 -123 -211 -357 -211 -469 0 -67
-8 -76 -111 -111 -82 -28 -295 -30 -404 -5 -165 39 -394 123 -456 167 -37 26
-38 64 -3 139 56 121 347 361 581 479 151 76 235 105 688 240 168 50 317 129
345 182 7 12 8 19 2 15 -7 -4 -7 4 0 22 15 38 3 79 -25 88 -12 4 -83 8 -157 8
l-135 1 -77 38 c-44 21 -138 85 -215 145 -76 59 -168 129 -204 155 -89 63
-295 162 -394 188 -113 30 -322 37 -429 15 -108 -23 -317 -92 -391 -129 -74
-37 -61 -19 49 68 80 64 203 190 248 256 13 19 69 95 124 169 183 247 222 303
217 316 -3 7 -29 18 -58 24 -118 24 -402 -41 -580 -134 -33 -17 -63 -32 -67
-34 -5 -2 -8 7 -8 21 0 21 12 30 78 60 94 42 283 102 372 117 197 32 215 33
296 18z m-81 -78 c26 -10 10 -16 -65 -24 -153 -16 -329 -68 -499 -147 -85 -40
-104 -42 -85 -11 25 41 322 159 455 181 69 11 168 12 194 1z m-21 -52 c-4 -7
-21 -29 -37 -49 l-28 -37 -92 0 c-106 -1 -291 -44 -394 -92 -58 -27 -73 -28
-73 -8 0 14 170 91 290 131 153 52 352 85 334 55z m2834 -114 c-35 -51 -68
-86 -97 -103 -102 -61 -321 -250 -321 -278 0 -18 -14 -16 -33 5 -16 17 -10 25
106 138 67 66 156 147 197 181 76 61 179 132 193 132 4 1 -16 -33 -45 -75z
m-2941 8 c20 -7 18 -12 -45 -99 -64 -89 -67 -92 -85 -75 -25 22 -174 29 -260
12 -63 -12 -98 -2 -60 18 39 21 191 54 271 59 70 5 85 3 102 -12 24 -21 27 -4
4 19 -30 31 -179 15 -337 -35 -48 -16 -71 -19 -79 -11 -31 31 301 127 452 130
8 0 25 -3 37 -6z m3147 -54 c-50 -82 -137 -210 -162 -237 -18 -18 -30 -37 -27
-41 6 -9 -52 -83 -93 -119 -110 -95 -348 -213 -455 -224 l-48 -5 33 24 c17 13
70 36 117 50 98 31 155 57 249 118 77 49 196 146 189 153 -3 2 -32 -17 -64
-43 -105 -86 -305 -206 -319 -191 -6 6 113 97 170 130 109 64 269 214 369 345
36 47 59 70 41 40z m-3307 -124 c36 -10 33 -28 -13 -95 -59 -84 -64 -88 -61
-53 2 28 0 29 -44 32 -31 2 -53 10 -64 22 -16 17 -16 20 -2 26 9 3 50 4 91 2
60 -2 76 0 76 11 0 12 -19 13 -107 8 -91 -6 -109 -5 -125 10 -25 22 -23 31 10
36 44 7 215 7 239 1z m-391 -43 c-3 -5 4 -11 15 -14 11 -3 23 -14 25 -24 3
-10 25 -32 49 -48 25 -17 45 -35 45 -42 0 -19 -93 -94 -112 -89 -9 2 -28 -9
-45 -28 l-28 -31 33 29 c17 17 32 25 32 19 0 -6 -12 -21 -26 -34 -14 -13 -37
-36 -51 -51 -14 -15 -29 -25 -34 -23 -4 3 -11 0 -15 -6 -5 -8 -2 -10 7 -5 8 4
1 -4 -15 -18 -17 -14 -34 -22 -39 -19 -5 3 1 14 14 24 13 10 19 19 13 19 -16
0 -39 -30 -39 -52 0 -10 -4 -17 -10 -15 -5 1 -9 6 -7 11 2 5 -3 4 -11 -2 -8
-7 -16 -9 -20 -6 -3 3 -4 -6 -3 -20 3 -25 -32 -62 -194 -202 -24 -22 -79 -73
-122 -114 -78 -74 -78 -75 -62 -99 16 -22 22 -23 78 -18 37 4 100 22 161 47
55 22 139 54 188 71 l87 30 68 -59 c100 -87 144 -114 289 -178 l131 -59 -41
-15 c-110 -43 -257 -166 -281 -237 -35 -103 -5 -233 65 -285 17 -13 29 -31 29
-44 0 -45 36 -132 87 -208 l53 -79 -48 6 c-100 13 -493 46 -607 52 -137 6
-454 28 -725 50 -102 8 -284 22 -405 30 -309 22 -422 32 -560 48 -66 8 -172
18 -235 22 -71 4 -117 11 -122 18 -4 7 -27 11 -55 10 -40 -1 -44 1 -23 9 20 7
22 11 10 18 -9 6 -10 10 -3 10 6 0 15 -4 18 -10 7 -11 21 -1 62 42 15 16 30
28 35 28 14 0 128 81 128 91 0 5 5 9 10 9 6 0 20 9 32 20 12 11 32 20 45 20
14 0 22 4 19 9 -8 12 55 51 80 51 11 0 26 5 34 11 11 8 9 9 -10 4 -24 -7 -24
-7 -5 9 11 8 28 16 38 16 10 0 16 4 13 8 -3 5 7 15 22 23 15 8 34 22 43 31 9
10 23 18 31 18 9 0 22 7 29 16 27 33 91 66 117 61 18 -3 26 0 29 14 3 11 9 19
14 19 5 0 9 5 9 11 0 17 32 38 58 39 12 0 22 6 22 14 0 8 9 18 20 21 11 3 20
11 20 16 0 5 7 9 16 9 9 0 24 8 33 18 14 17 146 102 157 102 3 0 14 9 26 20
12 11 28 20 35 20 7 0 13 5 13 10 0 6 7 10 15 10 8 0 15 4 15 9 0 4 17 19 38
33 183 121 332 218 337 218 3 0 15 9 27 20 12 11 28 20 35 20 7 0 13 5 13 10
0 6 7 10 16 10 9 0 25 10 36 23 11 12 16 16 13 9 -6 -11 -3 -11 14 0 12 7 21
16 21 20 0 5 9 8 21 8 12 0 18 4 13 11 -5 8 3 10 26 7 27 -4 30 -3 17 7 -15
11 -14 13 11 26 15 8 34 22 43 31 9 10 23 18 32 18 8 0 17 4 19 8 2 5 32 28
68 52 36 24 70 48 75 52 33 27 100 66 107 62 4 -3 8 0 8 7 0 7 3 10 6 6 4 -3
15 4 26 16 11 12 17 16 13 10 -4 -8 0 -13 9 -13 10 0 13 6 10 15 -4 9 3 18 18
24 13 5 30 16 37 25 7 9 22 16 32 16 10 0 33 15 51 34 30 32 57 48 44 27z
m5446 -5 c74 -10 90 -16 107 -38 16 -19 36 -29 84 -38 95 -18 177 -66 205
-120 28 -56 29 -129 1 -190 l-20 -45 -22 30 c-70 97 -130 138 -252 177 -79 25
-224 48 -307 48 -86 0 -338 -42 -453 -76 -185 -55 -535 -175 -680 -232 -137
-55 -401 -143 -615 -206 -88 -26 -192 -40 -369 -51 -163 -10 -107 15 89 40 52
7 187 46 385 112 135 45 192 67 430 167 61 26 173 72 250 103 77 30 179 75
227 99 150 75 379 160 525 194 43 10 252 35 313 38 8 0 54 -5 102 -12z m-2685
-38 c65 -24 193 -114 210 -148 7 -14 13 -21 13 -16 0 4 16 -6 36 -24 45 -39
81 -53 119 -46 l30 6 -35 -29 c-19 -17 -71 -49 -115 -72 -44 -23 -82 -45 -85
-49 -3 -4 -54 -35 -114 -69 -130 -75 -180 -85 -249 -52 -117 56 -141 214 -49
321 36 42 138 99 183 101 13 1 4 5 -21 9 -81 13 -236 -60 -346 -162 -72 -67
-144 -194 -143 -250 l0 -33 13 40 c50 158 203 313 364 369 50 18 56 13 10 -9
-33 -15 -67 -37 -145 -96 -53 -39 -145 -160 -179 -234 -27 -59 -43 -158 -27
-168 6 -4 13 16 16 48 7 66 44 150 99 225 45 60 118 140 129 140 16 0 -29 -89
-57 -113 -35 -30 -96 -140 -114 -206 -14 -53 -16 -149 -4 -161 6 -6 8 6 6 29
-8 81 42 227 106 311 l27 35 6 -45 c5 -38 2 -50 -23 -84 -15 -22 -35 -62 -43
-89 -20 -68 -20 -167 1 -193 15 -19 16 -19 7 1 -24 58 10 229 56 286 l18 23
12 -22 c10 -19 8 -33 -13 -85 -13 -34 -27 -82 -31 -107 -7 -45 6 -100 24 -100
5 0 5 12 -2 29 -18 49 26 232 53 216 14 -9 12 -37 -5 -79 -20 -46 -23 -149 -6
-170 19 -23 34 -20 21 3 -12 23 -12 128 0 156 7 16 9 12 9 -19 1 -52 37 -125
68 -139 23 -10 23 -12 6 -18 -29 -12 -170 -10 -219 2 -31 8 -63 28 -100 62
-95 87 -125 177 -99 300 22 105 58 171 139 252 143 142 285 182 443 123z
m-2465 -78 c-3 -39 -70 -109 -265 -278 -105 -92 -132 -132 -88 -132 11 0 66
22 123 49 152 73 360 139 496 158 174 25 320 1 512 -85 122 -54 233 -125 378
-241 200 -159 286 -205 405 -218 l60 -6 -94 -48 c-124 -64 -284 -116 -400
-130 -174 -21 -451 4 -536 49 -12 7 -65 12 -121 12 -175 0 -291 31 -497 130
-148 72 -277 166 -283 207 -3 18 7 25 55 43 171 64 367 100 543 100 254 -1
341 -26 692 -203 224 -114 277 -137 360 -155 53 -12 118 -22 145 -21 45 1 44
2 -27 14 -172 29 -258 65 -670 279 -181 95 -258 111 -510 111 -179 -1 -204 -3
-305 -28 -150 -37 -232 -65 -284 -94 -24 -14 -71 -32 -105 -40 -60 -14 -258
-83 -296 -103 -11 -6 -20 -9 -20 -7 0 3 75 71 167 153 563 501 538 477 530
499 -7 17 3 27 23 23 11 -3 14 -13 12 -38z m5073 -114 c113 -17 225 -50 288
-84 61 -33 130 -116 117 -140 -5 -9 -18 -48 -30 -87 -22 -72 -99 -226 -151
-301 -48 -70 -246 -258 -371 -351 -129 -97 -262 -173 -377 -216 -127 -47 -281
-85 -372 -93 l-86 -6 -11 28 c-6 16 -16 48 -22 70 -28 111 -199 302 -344 383
-122 69 -224 97 -451 122 -98 10 -125 14 -290 44 -77 14 -224 57 -255 76 -9 5
32 9 105 9 172 0 279 16 450 66 170 49 460 146 580 194 85 33 456 160 615 210
81 25 281 68 385 83 62 8 133 6 220 -7z m-2014 -75 c-28 -51 -198 -149 -325
-186 -97 -28 -210 -42 -219 -28 -12 19 57 46 132 53 93 8 255 71 351 135 77
51 73 50 61 26z m-141 -147 c-72 -74 -228 -135 -345 -136 -70 0 -143 10 -150
21 -10 17 53 33 125 32 97 -2 241 36 335 89 39 21 72 39 75 40 2 0 -16 -21
-40 -46z m-134 -120 c-57 -50 -131 -82 -209 -90 -60 -6 -73 -4 -120 20 -57 27
-95 61 -83 73 4 4 15 2 24 -5 37 -26 70 -34 152 -34 85 0 181 23 240 57 39 23
38 17 -4 -21z m-460 -37 c25 -52 87 -97 144 -104 31 -4 41 -3 36 5 -4 7 -16
12 -27 12 -45 0 -149 77 -149 111 0 18 17 8 62 -34 53 -51 115 -73 186 -64
l47 6 -39 -20 c-22 -12 -67 -29 -102 -38 -55 -16 -65 -16 -90 -3 -63 32 -104
90 -104 147 0 36 12 30 36 -18z m-340 -241 c-28 -182 -178 -441 -396 -686
-158 -178 -218 -292 -227 -431 l-6 -87 -56 -5 c-31 -2 -65 -8 -75 -12 -17 -8
-18 -4 -14 41 8 74 64 208 133 314 42 65 111 145 214 252 84 87 162 170 174
185 11 15 46 55 78 88 88 94 159 253 159 358 0 25 4 36 11 31 7 -4 9 -22 5
-48z m173 -52 c12 -18 38 -76 58 -130 32 -91 35 -108 34 -204 -1 -142 -30
-289 -95 -475 -46 -133 -60 -224 -53 -332 6 -102 35 -189 78 -238 l30 -33 -33
-11 c-18 -6 -89 -15 -158 -20 -147 -12 -237 -2 -360 39 -155 52 -222 103 -254
197 -15 45 -16 63 -7 138 15 126 79 246 214 400 127 145 250 317 300 418 55
114 100 254 94 297 l-5 37 68 -26 c48 -19 74 -35 89 -57z m207 34 c25 -50 54
-77 94 -88 20 -5 117 -17 216 -25 196 -16 244 -26 379 -81 221 -89 353 -189
430 -327 37 -67 37 -70 33 -155 -4 -76 -9 -96 -42 -160 -62 -122 -151 -194
-288 -233 -87 -24 -112 -24 -160 3 -40 23 -40 23 -34 69 5 36 1 63 -20 119
-69 191 -236 390 -394 470 -51 26 -82 49 -183 140 -94 84 -137 133 -170 194
-41 74 -30 91 68 99 22 2 43 4 47 5 4 1 15 -13 24 -30z m499 -7 c85 -25 126
-32 520 -81 300 -38 579 -249 652 -492 8 -28 13 -51 11 -52 -2 -1 -26 -12 -54
-24 l-51 -21 -84 80 c-46 45 -121 105 -167 136 -88 58 -244 143 -265 143 -6 1
-32 19 -57 41 l-45 41 40 -6 c45 -7 270 -119 420 -208 55 -33 128 -87 162
-120 l61 -61 -3 36 c-5 51 -16 67 -107 152 -181 167 -398 264 -755 334 -138
27 -327 89 -373 122 -18 12 -11 11 95 -20z m351 -135 c152 -34 339 -97 437
-148 100 -52 214 -137 285 -211 59 -63 72 -100 15 -45 -84 80 -508 309 -598
322 -28 5 -95 27 -150 51 -55 23 -107 45 -115 48 -39 14 25 5 126 -17z m-1470
5 c-11 -17 -221 -99 -335 -131 -62 -17 -128 -37 -146 -44 -18 -8 -52 -17 -76
-21 -24 -4 -60 -13 -79 -21 -19 -7 -90 -33 -157 -58 -145 -54 -194 -78 -333
-164 -121 -76 -206 -142 -305 -239 -94 -92 -123 -132 -150 -206 l-23 -62 -22
50 c-11 28 -43 84 -71 126 -84 129 -109 231 -68 283 58 73 282 188 459 234 63
17 213 49 332 72 119 22 229 45 245 50 15 5 82 18 149 29 66 11 153 32 193 46
61 22 94 27 190 30 76 1 130 8 156 18 49 19 47 19 41 8z m715 -226 c30 -23 77
-55 105 -71 163 -94 300 -252 375 -433 27 -64 30 -83 25 -129 -12 -100 -86
-210 -199 -293 -125 -93 -244 -145 -384 -169 -87 -14 -125 -5 -171 43 -71 73
-107 240 -83 378 17 94 49 216 67 250 7 14 20 55 28 90 52 221 62 390 29 494
l-20 61 86 -89 c47 -49 111 -108 142 -132z m-2126 146 c-168 -47 -335 -128
-439 -214 l-49 -41 7 34 c3 19 18 46 31 60 42 43 184 116 290 148 129 40 129
40 200 40 l60 1 -100 -28z m240 9 c-3 -5 -17 -10 -29 -10 -34 0 -211 -47 -276
-74 -71 -28 -339 -205 -373 -245 -14 -17 -28 -31 -30 -31 -10 0 -17 50 -9 69
21 58 292 209 462 257 134 38 269 56 255 34z m73 -15 c-3 -3 -42 -15 -88 -26
-131 -33 -414 -164 -485 -224 -27 -23 -24 -22 24 6 176 100 368 180 500 209
74 17 111 19 211 13 66 -3 117 -9 113 -13 -4 -4 -80 -19 -168 -34 -409 -72
-653 -163 -779 -293 -28 -29 -39 -34 -61 -29 -34 9 -42 32 -19 58 22 24 280
196 339 225 94 47 444 139 413 108z m2865 -151 c129 -65 397 -266 397 -298 0
-12 -61 -26 -114 -26 -12 0 -44 21 -72 46 -27 26 -72 62 -101 81 -31 21 -57
47 -64 66 -7 18 -15 36 -17 41 -7 13 64 -31 128 -80 72 -55 126 -105 132 -124
3 -8 8 -12 12 -8 21 19 -132 155 -238 212 -41 22 -140 116 -122 116 4 0 30
-12 59 -26z m491 -436 c-30 -57 -93 -179 -140 -272 l-85 -169 -92 6 c-185 12
-455 27 -589 33 l-137 6 16 32 c21 41 20 41 38 26 43 -36 233 -1 340 63 33 19
84 60 112 90 51 54 115 165 127 223 l7 32 60 -19 c34 -11 83 -19 110 -19 68 0
198 28 234 50 17 10 36 19 42 19 7 1 -12 -45 -43 -101z"/>
<path d="M3460 4069 c-63 -39 -121 -74 -129 -78 -11 -7 34 -63 185 -232 109
-123 201 -226 204 -229 3 -3 44 -48 90 -100 47 -52 88 -94 92 -93 7 3 195 113
236 139 l23 15 -27 32 c-15 18 -59 68 -99 112 -40 44 -157 175 -259 290 -103
116 -190 211 -194 212 -4 1 -59 -30 -122 -68z"/>
<path d="M9300 7533 c-14 -5 -110 -61 -445 -261 -172 -102 -200 -131 -192
-199 4 -36 17 -56 78 -125 40 -46 78 -87 84 -93 5 -5 64 -71 129 -145 154
-174 169 -185 255 -185 55 0 73 5 106 26 22 15 88 55 147 90 204 121 283 168
346 204 34 20 70 47 78 61 20 30 20 98 1 127 -23 35 -303 350 -397 448 -46 48
-134 72 -190 52z m94 -397 c53 -60 96 -112 96 -116 0 -4 -59 -43 -131 -85
-111 -66 -132 -76 -144 -64 -95 100 -194 224 -186 232 24 24 238 146 253 144
9 -1 60 -51 112 -111z"/>
<path d="M2440 3461 c-25 -15 -124 -75 -220 -131 -233 -137 -262 -155 -288
-183 -27 -28 -38 -82 -24 -117 17 -44 427 -496 464 -511 18 -7 55 -13 83 -12
53 0 60 4 275 133 52 31 150 89 218 129 67 40 122 76 122 80 0 7 -137 169
-185 220 -12 12 -43 -3 -208 -102 -107 -65 -199 -117 -204 -117 -10 0 -53 42
-53 52 0 4 15 15 33 26 17 10 100 59 182 107 83 49 156 94 163 100 11 10 4 23
-35 67 l-48 56 -45 -26 c-25 -14 -115 -68 -200 -118 l-155 -93 -27 26 c-16 15
-28 29 -28 32 0 3 88 58 195 121 107 63 194 120 192 126 -3 17 -140 164 -151
164 -6 0 -31 -13 -56 -29z"/>
<path d="M1635 2984 c-60 -36 -116 -72 -124 -80 -13 -11 -4 -25 59 -96 41 -46
87 -96 102 -112 15 -16 25 -32 23 -36 -7 -11 -244 -150 -255 -150 -5 0 -55 52
-111 115 -96 109 -103 115 -123 102 -11 -7 -69 -42 -128 -76 -60 -35 -108 -67
-108 -72 0 -5 23 -34 51 -65 28 -31 63 -70 78 -87 14 -16 33 -37 42 -46 8 -9
69 -77 134 -151 65 -74 138 -155 161 -180 23 -25 54 -60 69 -77 15 -18 32 -33
37 -33 15 0 257 143 258 152 0 4 -8 15 -18 25 -10 10 -67 74 -127 142 -127
143 -132 116 40 217 l110 64 45 -47 c67 -71 204 -224 211 -236 4 -6 22 -1 48
14 140 82 221 132 221 138 0 3 -15 22 -33 42 -17 19 -98 109 -178 200 -321
361 -352 394 -363 396 -6 2 -60 -27 -121 -63z"/>
<path d="M830 2506 c-19 -13 -114 -70 -210 -126 -96 -56 -191 -113 -210 -125
-19 -12 -68 -41 -108 -65 -40 -23 -74 -46 -76 -49 -3 -4 12 -25 32 -47 20 -22
96 -107 169 -189 153 -173 180 -197 277 -239 64 -27 81 -30 176 -31 129 0 183
15 305 88 50 29 132 77 182 107 51 30 92 58 90 62 -4 12 -191 227 -198 227 -4
1 -42 -20 -85 -46 -44 -25 -107 -63 -142 -84 -118 -70 -208 -62 -292 25 -50
52 -90 100 -90 109 0 2 82 53 183 113 100 59 188 113 195 119 10 9 6 18 -19
46 -17 18 -49 55 -72 82 -23 26 -48 47 -57 46 -8 0 -31 -11 -50 -23z"/>
</g>
</svg>
