<?xml version="1.0" standalone="no"?>
<!DOCTYPE svg PUBLIC "-//W3C//DTD SVG 20010904//EN"
 "http://www.w3.org/TR/2001/REC-SVG-20010904/DTD/svg10.dtd">
<svg version="1.0" xmlns="http://www.w3.org/2000/svg"
 width="1422.000000pt" height="784.000000pt" viewBox="0 0 1422.000000 784.000000"
 preserveAspectRatio="xMidYMid meet">
<metadata>
Created by potrace 1.16, written by Peter Selinger 2001-2019
</metadata>
<g transform="translate(0.000000,784.000000) scale(0.100000,-0.100000)"
fill="#000000" stroke="none">
<path d="M6865 7570 c-22 -4 -56 -10 -75 -14 -92 -17 -258 -105 -298 -158 -7
-9 -19 -24 -28 -32 -8 -9 -28 -55 -45 -103 -16 -49 -32 -95 -36 -103 -3 -8 -5
-21 -4 -29 2 -10 -5 -12 -25 -7 -30 8 -53 31 -55 59 -1 9 -2 20 -3 25 -1 4 -6
23 -10 42 -13 54 -56 107 -111 136 -73 38 -175 71 -264 85 -69 11 -84 10 -137
-7 -32 -10 -85 -31 -117 -46 -32 -16 -79 -33 -105 -40 -96 -22 -240 -109 -301
-181 -39 -46 -101 -140 -101 -154 0 -7 -4 -13 -10 -13 -5 0 -10 -5 -10 -11 0
-6 -11 -32 -23 -58 -13 -25 -39 -91 -57 -146 -18 -55 -37 -101 -41 -103 -4 -2
-5 -10 -3 -17 3 -8 -1 -36 -9 -62 -29 -94 -67 -302 -70 -380 -1 -24 -4 -43 -7
-43 -3 0 -3 -25 -2 -55 4 -62 -10 -68 -41 -16 -36 62 -146 159 -219 194 -129
63 -163 72 -273 71 -74 -1 -196 -40 -235 -76 -11 -10 -24 -18 -30 -18 -5 0
-10 -4 -10 -8 0 -5 -8 -17 -19 -28 -42 -46 -61 -153 -46 -262 5 -39 3 -51 -14
-69 -12 -12 -21 -25 -21 -29 0 -4 -11 -22 -25 -40 -14 -18 -25 -37 -25 -43 0
-6 -4 -11 -9 -11 -5 0 -12 -13 -16 -30 -4 -16 -10 -30 -14 -30 -11 0 -98 -275
-107 -339 -2 -14 -6 -48 -10 -76 -8 -62 -7 -61 -46 -69 -38 -7 -47 -9 -153
-31 -44 -9 -91 -19 -105 -21 -14 -3 -33 -7 -42 -10 -9 -3 -27 -7 -40 -9 -72
-13 -111 -30 -138 -61 -47 -54 -47 -85 0 -210 22 -60 42 -113 44 -119 1 -5 12
-30 24 -54 12 -25 22 -50 22 -56 0 -5 14 -39 31 -74 17 -35 32 -69 33 -75 1
-6 7 -20 12 -31 6 -11 21 -45 33 -76 19 -49 63 -99 87 -99 4 0 16 -7 25 -16
24 -22 127 -26 188 -9 25 7 87 21 138 30 l91 18 31 -34 c17 -19 31 -39 31 -45
0 -13 -77 -32 -250 -64 -83 -15 -100 -19 -118 -24 -9 -3 -33 -8 -52 -11 -19
-3 -82 -17 -140 -31 -58 -14 -116 -28 -130 -30 -14 -3 -38 -9 -55 -14 -16 -5
-41 -11 -55 -14 -14 -2 -54 -12 -90 -21 -36 -8 -74 -18 -85 -20 -11 -2 -38 -9
-60 -14 -88 -23 -302 -73 -325 -77 -14 -3 -38 -9 -55 -13 -16 -5 -55 -14 -85
-20 -30 -6 -113 -25 -185 -42 -71 -17 -141 -33 -155 -35 -14 -3 -38 -9 -55
-14 -16 -5 -46 -12 -65 -15 -29 -5 -159 -33 -390 -86 -25 -6 -61 -14 -80 -19
-19 -5 -51 -12 -70 -15 -42 -7 -201 -42 -250 -55 -19 -5 -51 -12 -70 -15 -42
-7 -201 -42 -250 -55 -19 -5 -51 -12 -70 -15 -19 -3 -102 -22 -185 -41 -82
-20 -161 -38 -175 -40 -14 -3 -43 -10 -65 -15 -22 -5 -51 -12 -65 -15 -72 -15
-133 -38 -156 -59 -21 -19 -25 -31 -22 -66 3 -37 8 -46 33 -59 17 -8 32 -18
35 -21 3 -3 23 -12 45 -19 22 -7 47 -18 55 -25 8 -7 34 -19 57 -26 24 -7 43
-15 43 -19 0 -5 12 -11 28 -14 15 -4 50 -18 77 -31 28 -13 70 -32 95 -43 25
-11 81 -36 125 -55 44 -20 92 -39 107 -42 16 -4 28 -11 28 -16 0 -5 7 -9 15
-9 8 0 15 -4 15 -8 0 -4 9 -8 20 -9 11 -1 44 -13 73 -26 28 -14 70 -30 92 -37
22 -7 43 -18 47 -24 4 -6 11 -11 15 -11 16 -1 89 -28 108 -40 11 -6 44 -20 72
-29 29 -10 55 -21 58 -26 3 -5 29 -16 58 -25 28 -10 61 -23 72 -30 11 -6 43
-20 70 -30 28 -10 59 -24 70 -31 11 -6 44 -19 72 -29 29 -9 55 -20 58 -25 3
-5 29 -16 58 -26 28 -9 57 -20 62 -25 6 -4 37 -18 70 -30 33 -12 62 -25 65
-29 7 -8 43 -24 53 -22 4 1 7 -3 7 -9 0 -5 4 -7 10 -4 8 5 89 -28 170 -70 14
-7 49 -20 77 -29 29 -10 55 -21 58 -26 3 -5 29 -16 58 -26 28 -9 61 -23 72
-29 11 -7 38 -18 60 -25 22 -7 47 -18 55 -25 8 -7 33 -18 55 -25 22 -7 49 -18
60 -24 11 -7 44 -21 73 -31 28 -11 52 -22 52 -26 0 -4 13 -10 30 -14 16 -4 30
-11 30 -16 0 -6 4 -8 10 -4 5 3 38 -8 73 -24 35 -16 75 -33 90 -36 15 -4 27
-10 27 -14 0 -4 26 -15 58 -25 31 -10 64 -24 72 -31 8 -7 40 -20 70 -30 30
-10 60 -21 65 -25 6 -5 42 -20 80 -35 39 -14 88 -34 110 -45 22 -10 59 -24 83
-31 23 -7 42 -16 42 -21 0 -5 4 -7 9 -4 23 15 82 -26 118 -82 40 -61 163 -190
228 -238 49 -36 73 -55 90 -72 8 -6 17 -12 21 -12 4 0 22 -11 40 -25 18 -14
37 -25 43 -25 6 0 11 -4 11 -10 0 -5 6 -10 14 -10 7 0 19 -7 26 -15 7 -8 21
-15 31 -15 11 0 19 -3 19 -8 0 -14 177 -86 240 -98 14 -2 47 -8 73 -13 67 -11
217 -7 244 8 13 6 40 13 62 15 43 4 50 -5 56 -71 5 -52 66 -153 130 -218 69
-69 101 -95 115 -95 6 0 10 -4 10 -10 0 -5 7 -10 15 -10 8 0 15 -4 15 -8 0 -9
81 -52 98 -52 6 0 12 -4 14 -9 4 -11 199 -80 247 -87 20 -3 46 -7 58 -9 36 -5
96 -26 121 -42 33 -20 130 -53 159 -53 12 0 23 -4 23 -8 0 -10 271 -8 315 2
17 4 62 16 100 28 88 26 145 34 145 19 0 -6 5 -11 12 -11 6 0 39 -13 74 -30
34 -16 74 -32 88 -36 14 -3 26 -10 26 -16 0 -5 5 -6 10 -3 6 4 21 0 33 -8 12
-8 25 -15 29 -16 26 -6 204 -74 213 -80 13 -11 450 -161 468 -161 7 0 29 14
48 30 112 100 232 213 362 342 129 128 151 146 175 143 54 -8 98 -14 147 -20
57 -6 360 -8 390 -2 11 3 54 10 95 17 166 26 486 139 650 229 156 85 345 249
405 350 21 35 38 52 58 56 79 18 168 152 181 272 8 78 -41 185 -114 246 -16
14 -30 28 -30 30 0 3 12 10 28 16 108 44 221 136 294 241 42 60 45 62 103 94
82 45 98 72 169 281 69 201 86 280 86 389 l0 67 163 159 c89 87 194 189 232
225 76 73 481 465 629 608 50 49 141 136 201 195 140 134 520 501 635 612 48
47 175 169 281 272 107 102 224 215 260 250 36 34 177 171 314 303 137 132
322 312 412 400 153 150 163 163 163 198 0 40 -27 76 -57 78 -41 2 -100 -3
-133 -11 -19 -5 -50 -12 -68 -15 -18 -3 -65 -12 -105 -21 -93 -21 -156 -34
-187 -40 -14 -3 -32 -7 -40 -9 -8 -2 -31 -7 -50 -10 -19 -3 -53 -10 -75 -16
-22 -5 -51 -12 -65 -15 -14 -2 -33 -7 -42 -10 -9 -3 -27 -7 -40 -9 -13 -3 -34
-7 -48 -10 -14 -3 -34 -7 -45 -9 -11 -3 -56 -12 -100 -21 -44 -9 -91 -19 -105
-21 -14 -3 -33 -7 -42 -10 -9 -3 -25 -6 -35 -8 -10 -2 -54 -12 -98 -21 -96
-21 -159 -34 -200 -41 -16 -3 -48 -10 -70 -16 -22 -5 -50 -12 -62 -14 -58 -10
-73 -13 -148 -29 -44 -9 -91 -19 -105 -21 -14 -3 -32 -7 -40 -9 -8 -2 -31 -7
-50 -10 -19 -3 -123 -23 -230 -45 -107 -21 -220 -43 -250 -49 -61 -11 -300
-57 -340 -66 -14 -2 -36 -7 -50 -10 -14 -3 -36 -7 -50 -10 -83 -16 -127 -25
-146 -30 -17 -5 -31 7 -77 63 -30 38 -61 76 -69 83 -48 53 -57 68 -63 99 -6
39 -31 120 -50 165 -7 17 -20 48 -28 70 -8 22 -27 66 -41 97 -14 31 -26 60
-26 63 0 23 -123 272 -146 296 -14 15 -51 34 -85 44 -66 20 -39 23 -314 -31
-5 -1 -46 -9 -90 -19 -88 -18 -104 -22 -155 -32 -19 -4 -37 -8 -40 -8 -3 -1
-27 -5 -55 -10 -27 -4 -54 -11 -60 -15 -14 -11 -95 -6 -103 7 -8 12 -192 75
-267 92 -133 30 -353 30 -430 1 -14 -5 -36 -12 -48 -14 -121 -25 -466 -193
-549 -268 -8 -7 -34 -31 -57 -53 -39 -36 -42 -37 -36 -15 5 14 9 34 11 45 2
11 9 56 17 100 14 76 16 286 3 345 -3 13 -8 41 -11 62 -9 58 -53 179 -80 220
-14 21 -25 40 -25 43 0 6 -32 51 -75 105 -45 56 -169 169 -206 186 -21 11 -39
22 -39 26 0 3 -17 12 -37 19 -21 6 -43 16 -49 20 -13 11 -153 59 -162 57 -4
-1 -30 6 -59 16 -67 23 -120 23 -183 0 -42 -15 -54 -16 -71 -6 -39 25 -207 80
-255 85 -27 2 -67 1 -89 -3z m188 -126 c31 -9 57 -21 57 -26 0 -4 7 -8 15 -8
34 0 128 -128 138 -187 2 -10 8 -27 14 -38 14 -27 21 -71 29 -190 9 -122 9
-130 0 -230 -9 -102 -13 -135 -26 -215 -6 -36 -13 -81 -15 -100 -3 -19 -7 -53
-10 -75 -3 -22 -15 -92 -26 -155 -11 -63 -22 -122 -23 -130 -4 -25 -16 -81
-31 -145 -17 -72 -24 -108 -32 -157 -6 -43 -16 -41 -39 7 -24 52 -90 113 -130
121 -32 6 -129 0 -184 -11 -158 -31 -192 -37 -197 -32 -3 3 -7 75 -9 159 -3
146 -10 297 -18 383 -11 122 -18 180 -21 185 -1 3 -6 35 -9 71 -4 36 -13 89
-21 117 -7 29 -11 52 -9 52 3 0 2 6 -3 13 -4 6 -9 21 -10 31 -2 11 -9 26 -16
34 -8 10 -12 46 -11 101 1 70 8 103 34 176 36 102 65 138 152 190 133 79 273
100 401 59z m462 -84 c124 -44 208 -80 213 -92 2 -5 9 -8 16 -8 29 0 143 -108
212 -203 52 -70 110 -186 119 -237 3 -19 10 -51 15 -70 20 -79 29 -272 16
-345 -3 -16 -7 -46 -10 -66 -3 -20 -10 -49 -16 -63 -5 -15 -9 -30 -8 -34 1 -4
-2 -20 -7 -35 -6 -24 -30 -43 -65 -52 -6 -1 -63 -13 -99 -20 -14 -2 -68 -13
-120 -24 -53 -11 -107 -22 -121 -24 -95 -18 -98 -19 -103 -43 -2 -13 -1 -25 2
-26 12 -5 82 -188 73 -188 -4 0 -2 -4 4 -8 9 -7 46 -92 50 -119 1 -7 -2 -13
-7 -13 -5 0 -9 -5 -9 -11 0 -6 -34 -81 -76 -167 -117 -243 -164 -346 -164
-357 0 -4 -11 -28 -24 -54 -12 -26 -29 -64 -36 -86 -7 -21 -21 -52 -30 -69
-10 -17 -24 -50 -31 -73 -7 -24 -16 -43 -21 -43 -5 0 -7 -4 -4 -9 3 -5 -25
-98 -63 -207 -66 -190 -70 -199 -106 -222 -56 -35 -162 -93 -390 -212 -479
-249 -442 -229 -482 -258 -17 -12 -36 -22 -42 -22 -6 0 -11 -4 -11 -10 0 -5
-5 -10 -10 -10 -14 0 -60 -50 -60 -64 1 -42 92 -66 248 -65 278 2 291 -2 233
-70 -17 -19 -38 -51 -48 -70 -10 -20 -21 -38 -24 -41 -3 -3 -11 -20 -18 -38
-32 -77 -5 -218 45 -241 50 -22 88 -14 132 30 23 22 42 47 42 55 0 8 3 14 8
14 20 0 46 109 48 207 2 94 0 106 -27 161 -15 32 -34 64 -41 69 -19 15 -67 22
-198 29 -63 3 -116 7 -117 8 -5 5 827 428 837 425 7 -2 41 91 45 126 3 17 14
57 25 90 12 33 23 75 26 94 2 18 16 61 30 95 14 33 37 90 51 126 13 36 35 88
48 115 12 28 33 73 45 100 25 55 57 126 88 195 12 25 24 57 27 73 4 15 11 27
15 27 5 0 12 10 15 23 11 37 89 187 97 187 9 0 31 -49 76 -165 43 -113 45
-121 27 -138 -8 -9 -15 -20 -15 -26 0 -6 -4 -11 -10 -11 -5 0 -10 -7 -10 -15
0 -8 -4 -15 -10 -15 -5 0 -10 -5 -10 -11 0 -6 -6 -16 -12 -24 -25 -26 -52 -60
-51 -65 1 -13 -20 -60 -28 -60 -5 0 -9 -6 -9 -12 0 -7 -7 -26 -16 -43 -9 -16
-25 -54 -35 -84 -10 -30 -24 -59 -29 -66 -6 -7 -24 -52 -40 -100 -16 -48 -34
-92 -39 -99 -5 -6 -23 -51 -40 -101 -55 -156 -81 -202 -143 -250 -30 -24 -275
-138 -395 -183 -149 -58 -233 -100 -233 -119 0 -15 41 -34 77 -36 13 -1 23 -6
23 -12 0 -5 4 -5 10 1 12 12 119 2 188 -17 62 -17 76 -43 67 -124 -3 -36 -10
-67 -15 -70 -5 -3 -14 -22 -21 -43 -7 -20 -29 -65 -51 -100 -21 -34 -38 -67
-38 -72 0 -6 -4 -10 -10 -10 -5 0 -10 -4 -10 -9 0 -11 -131 -205 -142 -209 -4
-2 -8 -10 -8 -18 0 -8 -4 -14 -8 -14 -5 0 -17 -18 -28 -40 -10 -22 -22 -40
-26 -40 -5 0 -8 -7 -8 -15 0 -8 -4 -15 -9 -15 -5 0 -8 -6 -8 -12 0 -7 -3 -32
-7 -56 -7 -35 -13 -43 -35 -48 -14 -3 -49 -14 -76 -24 l-51 -18 4 33 c5 46
-39 181 -92 280 -24 46 -80 138 -125 205 -44 67 -81 124 -81 127 0 11 -69 66
-105 83 -51 25 -145 48 -212 52 -29 2 -55 7 -59 11 -4 4 -2 7 4 7 13 0 165 96
198 126 12 10 41 35 65 54 73 59 339 330 339 346 0 3 6 11 13 19 24 26 45 53
87 116 24 35 47 66 52 67 4 2 8 10 8 18 0 8 5 14 10 14 6 0 10 6 10 14 0 8 4
16 8 18 12 4 152 222 152 236 0 7 4 12 9 12 5 0 13 10 17 23 4 12 9 24 13 27
10 9 91 174 91 188 0 6 4 12 9 12 5 0 12 13 16 29 6 29 7 29 26 10 10 -10 19
-23 19 -29 0 -5 7 -10 16 -10 8 0 12 -4 9 -10 -10 -17 57 -14 155 5 20 4 60
12 100 20 67 14 89 25 90 46 0 3 -12 19 -27 36 -26 29 -73 84 -141 164 -15 17
-46 53 -69 78 -24 25 -43 48 -43 51 0 3 13 21 30 40 25 30 47 81 42 101 -13
58 -11 104 7 153 11 29 18 56 15 59 -2 2 0 17 6 33 7 16 15 47 20 69 23 108
43 203 50 235 24 103 32 158 45 285 3 33 8 67 10 75 2 8 7 42 10 75 3 33 8 67
10 75 15 60 22 374 10 453 -9 56 -50 194 -75 248 l-19 44 36 17 c46 21 63 18
208 -32z m-1552 -16 c18 -4 38 -7 45 -5 6 1 12 -2 12 -7 0 -5 36 -21 80 -36
77 -27 80 -30 81 -60 1 -36 6 -66 19 -116 12 -45 96 -110 151 -117 38 -5 53
-24 62 -78 2 -11 9 -33 15 -48 10 -24 17 -54 25 -117 2 -8 5 -19 9 -25 3 -5 9
-32 13 -60 5 -27 10 -57 11 -65 2 -8 6 -49 9 -90 3 -41 8 -86 10 -100 9 -50
21 -476 16 -552 -1 -12 -17 -20 -58 -28 -32 -7 -71 -16 -88 -21 -16 -5 -47
-11 -69 -15 -46 -7 -56 -9 -121 -24 -27 -7 -63 -14 -80 -17 -52 -9 -63 -32
-37 -80 7 -12 12 -31 12 -42 0 -12 5 -21 10 -21 6 0 10 -4 10 -10 0 -8 69
-176 105 -255 7 -16 23 -55 35 -85 11 -30 27 -68 34 -85 8 -16 23 -51 35 -77
23 -52 26 -73 17 -132 -9 -54 -13 -55 -32 -10 -57 138 -93 214 -102 214 -5 0
-34 -5 -63 -10 -30 -6 -65 -13 -79 -15 -45 -8 -123 -24 -195 -40 -97 -22 -155
-29 -155 -19 0 5 -3 19 -6 30 -6 22 10 28 101 40 11 2 40 8 64 14 24 6 46 8
49 5 3 -2 10 -1 16 5 7 5 27 12 46 15 19 3 67 12 105 20 39 8 74 15 79 15 13
0 0 61 -24 116 -22 47 -38 66 -50 59 -3 -2 -21 -6 -40 -9 -19 -3 -57 -10 -85
-16 -27 -5 -88 -17 -135 -26 -46 -8 -87 -17 -90 -19 -3 -2 -25 -6 -50 -10 -25
-4 -48 -8 -51 -11 -8 -5 -32 24 -35 41 -1 9 16 18 44 25 26 6 56 12 67 15 10
3 37 7 59 11 22 3 43 7 47 9 3 2 41 11 85 20 162 32 182 48 150 118 -8 18 -27
60 -42 95 -19 45 -33 64 -50 68 -13 4 -24 11 -25 18 -2 21 -8 100 -14 191 -12
177 -14 191 -40 340 -3 17 -8 38 -11 47 -3 9 -7 27 -9 40 -3 13 -7 34 -10 48
-3 14 -7 34 -9 45 -2 11 -12 49 -21 85 -9 36 -19 73 -21 83 -5 27 -10 44 -67
222 -28 88 -52 162 -52 165 -12 42 -66 153 -94 196 l-30 44 34 0 c18 0 36 4
39 9 7 11 150 81 186 91 28 8 106 5 153 -6z m-437 -141 c32 -36 115 -213 99
-213 -2 0 2 -12 10 -27 8 -15 12 -30 9 -35 -3 -4 -1 -8 5 -8 5 0 13 -15 17
-32 10 -41 9 -40 17 -58 4 -8 16 -51 27 -95 11 -44 23 -87 27 -95 3 -8 7 -22
8 -30 1 -8 13 -62 28 -120 22 -90 32 -136 43 -185 28 -136 47 -296 61 -501 l5
-81 -43 -12 c-44 -12 -61 -15 -129 -27 -19 -3 -56 -12 -83 -19 -26 -8 -50 -14
-52 -14 -12 0 -84 -14 -135 -26 -30 -7 -81 -18 -113 -25 -65 -15 -122 -62
-132 -112 -6 -27 27 -152 46 -172 5 -6 9 -16 9 -23 0 -11 66 -172 106 -260 8
-17 14 -34 14 -38 0 -4 7 -23 16 -43 92 -213 158 -256 340 -221 32 7 70 13 84
14 14 1 32 5 42 9 9 4 29 9 45 10 15 2 35 6 43 9 8 3 29 8 45 11 17 3 64 13
105 21 41 9 84 19 95 21 11 2 31 6 45 9 74 16 70 18 55 -25 -7 -21 -21 -52
-29 -69 -9 -17 -35 -84 -58 -148 -22 -65 -44 -120 -49 -123 -4 -3 -11 -18 -14
-33 -4 -15 -11 -27 -17 -27 -5 0 -6 -5 -3 -10 6 -10 -44 -122 -57 -128 -5 -2
-8 -8 -8 -14 0 -12 -42 -100 -51 -108 -3 -3 -21 -29 -41 -58 -35 -53 -94 -119
-141 -159 -15 -12 -97 -57 -184 -99 -87 -42 -191 -92 -231 -111 -81 -40 -99
-61 -80 -93 7 -11 17 -21 23 -22 16 -2 111 -6 208 -8 54 -2 87 -7 87 -13 0 -8
4 -7 11 0 8 8 20 8 34 3 13 -5 25 -7 28 -4 7 7 148 -46 189 -72 21 -13 42 -24
48 -24 5 0 10 -4 10 -10 0 -5 6 -10 13 -10 7 0 19 -9 27 -20 8 -11 18 -20 23
-20 5 0 14 -6 21 -12 7 -7 41 -38 77 -68 141 -122 242 -250 289 -370 7 -19 20
-43 28 -52 13 -16 8 -24 -61 -93 -42 -41 -73 -75 -69 -75 4 0 2 -4 -4 -8 -19
-12 -62 -87 -75 -130 -12 -40 -26 -50 -64 -42 -5 1 -23 3 -40 5 -51 7 -198 65
-235 93 -45 34 -212 201 -270 271 -25 30 -53 62 -62 73 -10 10 -18 22 -18 27
0 5 -3 11 -7 13 -5 2 -34 35 -65 73 -59 73 -179 192 -237 235 -19 14 -39 30
-45 35 -23 20 -61 38 -130 62 -80 27 -79 27 -291 49 -33 3 -62 8 -65 10 -8 9
66 72 161 136 146 98 187 121 289 162 52 20 104 41 115 46 11 4 46 18 78 30
97 38 98 78 4 140 -122 80 -234 125 -339 135 -9 1 -23 5 -32 8 -47 18 -212 23
-516 16 -77 -2 -90 1 -138 27 -51 27 -154 120 -173 155 -10 19 3 27 63 34 42
5 143 31 157 39 5 4 8 14 4 24 -11 33 -76 187 -83 197 -4 6 -13 28 -20 50 -14
44 -27 57 -50 50 -8 -2 -31 -7 -51 -10 -19 -3 -70 -14 -112 -24 -41 -10 -80
-15 -85 -12 -17 12 -22 33 -41 196 -13 115 -18 107 86 130 51 10 94 24 97 31
2 6 -2 24 -9 40 -8 16 -23 52 -35 79 -54 124 -48 117 -98 113 l-44 -3 6 56 c9
86 68 306 86 319 3 3 17 28 30 55 13 28 40 77 61 110 20 33 40 71 44 84 7 22
11 23 59 18 102 -12 147 -23 158 -40 3 -6 16 -12 29 -14 12 -2 44 -17 71 -33
27 -17 53 -30 58 -30 6 0 10 -4 10 -9 0 -5 11 -12 25 -15 14 -4 25 -11 25 -16
0 -6 5 -10 10 -10 13 0 184 -110 188 -121 2 -5 9 -9 16 -9 6 0 18 -9 26 -20 8
-11 19 -20 24 -20 11 0 100 -89 95 -95 -3 -2 -18 -6 -34 -9 -57 -10 -140 -27
-157 -32 -9 -3 -26 -23 -37 -45 -21 -40 -62 -170 -62 -199 -1 -8 -10 -44 -22
-80 -19 -59 -24 -82 -26 -117 -2 -27 -17 -10 -40 45 -13 31 -37 85 -53 118
-15 34 -28 65 -28 70 0 4 -14 36 -31 72 l-32 64 -41 -5 c-22 -3 -74 -13 -115
-22 -91 -21 -102 -23 -123 -24 -24 -1 -48 -29 -41 -49 12 -36 55 -148 68 -177
7 -16 23 -55 35 -85 12 -30 28 -68 35 -85 39 -86 55 -125 55 -130 0 -3 11 -31
25 -61 14 -30 25 -57 25 -60 0 -3 11 -29 24 -57 13 -29 34 -77 47 -107 37 -89
26 -85 148 -61 29 6 57 9 61 6 5 -3 10 -1 12 4 1 5 21 12 43 15 83 13 100 21
98 48 -1 14 -11 45 -22 69 -12 23 -21 46 -21 51 0 5 -9 27 -19 51 -11 23 -31
71 -46 107 -15 36 -34 80 -42 98 -24 55 -21 54 110 -54 9 -7 20 -14 23 -14 3
0 21 -16 40 -35 18 -19 36 -35 40 -35 8 0 88 -63 92 -72 2 -5 10 -8 17 -8 7 0
15 -4 17 -8 2 -4 32 -31 67 -59 70 -56 69 -56 171 -29 69 19 82 15 106 -29 13
-21 21 -42 18 -46 -2 -4 3 -12 11 -19 8 -7 13 -16 10 -20 -3 -4 2 -13 10 -20
8 -7 12 -16 9 -21 -3 -5 0 -9 6 -9 6 0 9 -4 6 -9 -3 -5 1 -14 9 -21 8 -7 15
-16 15 -20 0 -10 90 -169 118 -207 12 -17 22 -34 22 -39 0 -4 11 -22 26 -41
14 -18 22 -33 19 -33 -4 0 0 -7 7 -15 47 -52 63 -84 46 -90 -7 -2 -26 -10 -43
-16 -16 -7 -39 -14 -50 -16 -11 -2 -24 -8 -29 -13 -6 -6 -16 -10 -23 -10 -11
0 -48 -15 -160 -66 -18 -8 -50 -21 -70 -28 -21 -8 -67 -27 -103 -43 -36 -17
-87 -40 -115 -53 -105 -47 -140 -66 -173 -97 -38 -36 -38 -52 0 -70 23 -12 39
-15 138 -29 32 -4 57 -8 130 -20 14 -2 48 -9 75 -15 28 -6 59 -12 70 -14 120
-21 242 -60 303 -99 23 -14 45 -26 48 -26 10 0 109 -75 144 -110 17 -17 28
-30 26 -30 -3 0 6 -12 19 -26 31 -33 95 -164 100 -203 2 -17 6 -38 9 -48 3
-10 7 -31 10 -48 15 -99 20 -121 32 -151 15 -35 96 -123 116 -125 7 -1 23 -3
36 -4 12 -1 32 6 43 16 44 38 35 201 -16 306 -28 59 -120 202 -161 253 -43 51
-140 150 -148 150 -4 0 -13 6 -21 13 -23 21 -55 47 -60 47 -2 0 -33 18 -67 40
-35 22 -69 40 -75 40 -7 0 -13 4 -13 8 0 5 -19 14 -42 21 -23 7 -51 19 -62 26
-26 17 -186 59 -261 69 -11 2 -36 8 -55 14 -19 6 -46 12 -60 14 -19 2 14 22
131 81 86 42 159 77 162 77 4 0 31 11 61 25 30 14 57 25 60 25 5 0 122 52 161
71 79 39 78 67 -11 197 -38 57 -74 111 -79 121 -6 10 -16 25 -22 32 -25 31
-205 380 -199 386 1 2 11 4 22 6 30 6 54 18 54 28 0 5 -5 9 -11 9 -6 0 -16 6
-23 13 -7 6 -28 23 -46 37 -51 38 -71 62 -77 93 -3 15 -10 30 -14 33 -5 3 -9
14 -9 25 0 10 -4 27 -10 37 -10 19 -61 178 -84 264 -48 177 -59 221 -82 326
-14 64 -28 131 -30 147 -3 17 -11 64 -19 105 -7 41 -17 102 -20 135 -4 33 -10
80 -14 105 -17 113 6 356 50 530 18 71 122 374 130 380 4 3 10 17 14 32 4 15
13 32 21 39 8 6 14 18 14 25 0 8 5 14 10 14 6 0 10 6 10 13 0 25 175 174 208
177 2 0 14 -12 28 -27z m3680 -724 c15 -5 29 -8 31 -5 3 2 24 -2 46 -10 23 -9
54 -17 70 -19 33 -4 100 -26 107 -34 3 -3 14 -11 25 -17 11 -6 21 -24 23 -40
5 -58 7 -69 12 -74 13 -13 30 -52 30 -68 0 -10 4 -22 8 -27 5 -6 21 -41 37
-80 15 -38 31 -74 35 -80 8 -11 24 -67 22 -77 -1 -3 5 -12 13 -18 8 -7 15 -18
15 -26 0 -23 90 -198 118 -230 15 -17 37 -34 50 -38 12 -4 22 -10 22 -14 -1
-4 -49 -31 -108 -60 -60 -28 -136 -70 -171 -93 -34 -22 -88 -54 -119 -71 -31
-17 -64 -37 -73 -44 -8 -8 -19 -14 -24 -14 -4 0 -23 -11 -41 -25 -18 -14 -35
-25 -38 -25 -2 0 -42 -23 -88 -51 -46 -29 -99 -61 -118 -71 -19 -11 -42 -26
-51 -34 -8 -8 -21 -14 -27 -14 -7 0 -12 -4 -12 -10 0 -5 -4 -10 -9 -10 -6 0
-53 -27 -106 -60 -53 -33 -98 -60 -101 -60 -3 0 -20 -11 -38 -25 -18 -14 -38
-25 -44 -25 -7 0 -12 -4 -12 -8 0 -4 -15 -16 -32 -27 -18 -10 -38 -24 -44 -29
-6 -6 -31 -27 -55 -46 -104 -84 -170 -160 -191 -220 -8 -26 -7 -38 8 -66 10
-19 22 -34 26 -34 11 0 103 -91 123 -123 51 -80 -4 -176 -190 -332 -108 -91
-327 -254 -342 -255 -6 0 -13 -4 -15 -9 -4 -12 -328 -242 -328 -233 0 4 28 32
62 62 34 30 69 62 78 70 8 8 33 28 55 45 22 16 47 36 55 45 9 8 28 24 41 35
47 38 154 129 171 145 9 8 56 47 104 85 113 90 216 193 237 236 19 41 15 94
-10 128 -16 20 -87 66 -160 103 -30 15 -36 35 -19 66 8 15 22 42 32 61 19 37
195 217 284 291 30 25 61 52 70 60 9 9 37 31 63 49 26 19 47 38 47 43 0 4 6 8
14 8 8 0 16 4 18 8 4 10 114 92 123 92 6 0 20 11 50 38 7 6 18 12 24 12 6 0
11 5 11 10 0 6 4 10 10 10 5 0 57 34 115 75 58 41 108 75 111 75 2 0 34 18 69
41 63 40 115 60 165 64 14 1 32 5 40 8 14 6 211 47 224 47 9 0 7 38 -3 44 -5
3 -12 18 -16 33 -8 33 -59 147 -81 183 -8 14 -18 33 -21 43 -7 21 -35 22 -128
2 -91 -20 -115 -24 -208 -40 l-79 -13 -30 67 c-16 36 -39 89 -50 116 -11 28
-26 64 -33 80 -7 17 -25 59 -40 95 -15 36 -36 84 -46 107 -11 24 -19 47 -19
53 0 10 -35 32 -41 25 -4 -3 -66 -17 -199 -45 -25 -5 -56 -12 -69 -14 -13 -3
-26 -8 -29 -11 -9 -9 -9 -45 0 -45 4 0 8 -6 8 -12 0 -7 6 -25 14 -39 17 -34
51 -132 48 -141 -1 -5 3 -8 9 -8 5 0 7 -4 4 -10 -3 -5 -1 -10 4 -10 6 0 11 -6
11 -12 0 -7 6 -24 13 -38 7 -14 24 -52 37 -85 13 -33 27 -65 32 -72 6 -7 7
-17 3 -23 -3 -5 -3 -10 2 -10 4 0 17 -21 27 -48 56 -139 112 -242 132 -242 6
0 17 -6 23 -14 13 -16 98 -42 124 -38 28 5 20 -5 -36 -40 -52 -33 -327 -227
-337 -238 -3 -3 -39 -31 -80 -63 -133 -101 -143 -110 -287 -254 -79 -79 -143
-149 -143 -157 0 -8 -4 -16 -8 -18 -13 -5 -51 -121 -47 -143 2 -11 4 -24 4
-28 2 -18 75 -77 109 -88 42 -14 79 -49 88 -84 8 -31 -18 -67 -87 -126 -29
-24 -59 -51 -68 -59 -9 -9 -35 -29 -56 -45 -22 -16 -49 -39 -60 -50 -11 -11
-38 -34 -60 -50 -21 -17 -47 -37 -55 -45 -25 -23 -77 -69 -165 -145 -107 -93
-188 -169 -315 -296 -136 -136 -290 -304 -290 -315 0 -3 -6 -11 -12 -19 -29
-30 -48 -56 -48 -65 0 -6 -4 -10 -10 -10 -5 0 -10 -4 -10 -9 0 -11 -69 -129
-79 -136 -4 -2 -38 7 -75 21 -71 25 -109 33 -188 35 -58 3 -66 17 -36 72 23
42 40 63 133 166 28 31 66 73 85 95 19 21 46 51 60 66 45 49 104 122 129 159
14 20 28 38 33 39 4 2 8 10 8 17 0 7 4 15 8 17 18 7 93 179 103 236 13 71 9
80 -48 107 l-36 17 34 16 c80 36 196 96 221 113 14 11 31 19 36 19 6 0 25 16
44 35 27 29 35 49 45 105 11 67 44 150 71 178 6 7 12 20 12 28 0 8 5 14 10 14
6 0 10 7 10 15 0 8 5 15 10 15 6 0 10 6 10 14 0 8 4 16 8 18 5 2 23 26 42 53
19 28 39 55 45 61 5 7 24 29 42 50 83 101 205 228 278 289 26 22 59 50 73 63
45 40 230 149 357 212 84 41 108 51 138 57 33 6 77 33 93 58 34 53 30 115 -18
225 -35 82 -42 95 -85 157 -34 49 -42 69 -39 95 8 80 -123 208 -260 252 -28 9
-67 25 -87 35 l-37 19 38 28 c73 57 224 141 264 148 7 1 30 10 50 20 20 10 42
19 50 20 7 1 29 9 48 18 59 28 132 49 185 55 28 3 51 7 53 8 8 7 185 -6 208
-16z m1014 -176 c7 -16 35 -80 61 -143 55 -133 65 -118 -92 -148 -185 -36
-162 -39 -193 28 -14 33 -26 62 -26 66 0 3 -6 20 -14 37 -33 74 -56 130 -54
132 3 3 157 35 203 42 17 3 31 6 32 7 1 1 17 3 36 4 28 2 36 -2 47 -25z
m-5690 -41 c41 -14 81 -31 88 -39 7 -7 17 -13 22 -13 5 0 36 -27 71 -60 34
-33 59 -60 55 -60 -4 0 6 -12 22 -27 72 -69 177 -242 170 -281 -1 -9 0 -21 4
-27 3 -5 11 -41 17 -80 6 -38 14 -81 17 -95 l7 -25 -29 26 c-16 14 -40 36 -54
48 -44 39 -188 141 -199 141 -6 0 -11 5 -11 10 0 6 -7 10 -15 10 -8 0 -15 3
-15 8 0 4 -17 16 -37 27 -21 11 -40 22 -43 25 -7 7 -60 36 -160 87 -80 41
-136 60 -203 69 -16 2 -41 10 -55 17 -26 12 -27 16 -25 82 2 39 7 71 13 73 5
2 10 8 10 14 0 22 99 77 146 82 13 2 27 6 31 10 14 13 99 2 173 -22z m3716
-366 c13 -13 12 -16 -3 -24 -10 -5 -31 -12 -48 -16 -93 -22 -105 -27 -105 -47
0 -34 54 -149 70 -149 8 0 42 7 75 15 65 15 70 13 80 -27 6 -22 4 -28 -9 -28
-21 0 -21 0 -57 -10 -18 -5 -50 -12 -73 -16 -22 -3 -43 -7 -47 -9 -7 -5 -18
16 -54 105 -15 36 -34 81 -42 100 -9 19 -19 47 -23 62 -8 26 -7 27 48 39 32 6
71 15 87 19 41 9 83 3 101 -14z m2462 -194 c76 -79 112 -129 112 -158 0 -9 16
-38 36 -65 20 -27 32 -49 28 -49 -4 0 0 -8 10 -19 9 -10 19 -29 21 -42 3 -13
9 -25 15 -27 5 -2 10 -12 10 -22 0 -17 -31 -29 -120 -45 -69 -13 -86 -16 -136
-26 -28 -5 -64 -12 -80 -15 -33 -6 -299 -82 -329 -95 -11 -4 -40 -13 -65 -20
-25 -6 -54 -15 -65 -19 -11 -5 -78 -27 -150 -50 -71 -22 -137 -43 -145 -47 -8
-3 -21 -7 -29 -9 -16 -3 -174 -60 -206 -74 -11 -5 -67 -29 -125 -53 -274 -116
-514 -250 -596 -335 -72 -75 -20 -111 216 -147 41 -7 134 -43 138 -53 3 -11
-93 -111 -148 -154 -19 -15 -47 -36 -62 -47 -14 -12 -29 -21 -33 -21 -3 0 -18
-11 -33 -25 -15 -14 -31 -25 -35 -25 -5 0 -27 -13 -50 -29 -87 -59 -119 -77
-417 -237 -133 -71 -171 -92 -235 -129 -33 -19 -80 -46 -105 -60 -25 -14 -58
-34 -75 -44 -30 -19 -181 -107 -245 -144 -19 -11 -69 -38 -110 -59 -41 -22
-106 -59 -145 -81 -86 -51 -137 -79 -193 -107 -24 -11 -51 -29 -61 -38 -10 -9
-30 -28 -46 -42 l-29 -25 23 32 c24 36 154 170 214 221 20 18 241 179 490 357
527 377 564 409 629 544 62 127 31 214 -116 326 -33 25 -49 65 -26 65 6 0 10
5 10 10 0 14 91 105 150 150 25 19 47 38 48 42 2 5 9 8 15 8 7 0 24 11 39 25
15 14 30 25 34 25 3 0 28 16 54 35 26 19 50 35 53 35 3 0 43 23 89 51 46 29
99 61 118 71 19 11 42 26 51 34 8 8 18 14 22 14 5 0 185 109 247 150 8 5 31
19 50 30 19 11 44 26 54 33 79 50 158 97 241 142 77 43 190 106 220 124 26 15
77 29 163 46 13 2 31 6 40 9 9 3 28 7 42 10 23 4 61 12 242 50 31 7 66 12 77
11 12 -1 21 2 21 7 0 4 12 8 28 8 15 0 32 4 39 8 7 4 26 9 43 10 25 2 39 -6
78 -46z m2641 -94 c-30 -27 -75 -69 -101 -94 -26 -24 -52 -44 -58 -44 -5 0
-10 -7 -10 -15 0 -8 -4 -15 -8 -15 -12 0 -72 -55 -72 -66 0 -5 -12 -14 -27
-20 -16 -6 -34 -24 -42 -40 -12 -23 -144 -164 -155 -164 -1 0 -52 -48 -113
-107 -61 -60 -171 -165 -245 -236 -73 -70 -182 -175 -242 -232 -60 -58 -110
-105 -110 -105 -1 0 -51 -48 -112 -107 -61 -60 -176 -169 -255 -243 -170 -161
-177 -167 -359 -340 -78 -74 -169 -161 -201 -192 -33 -32 -61 -58 -62 -58 -1
0 -54 -50 -117 -111 -197 -190 -308 -291 -317 -289 -8 2 -54 150 -47 150 2 0
-6 26 -18 58 -23 61 -65 132 -79 132 -5 0 -9 5 -9 11 0 27 -142 199 -165 199
-4 0 -15 8 -24 18 -9 10 -28 27 -43 38 l-26 20 47 50 c62 64 84 97 130 191 33
67 97 243 118 324 16 61 7 250 -14 299 -3 8 -5 23 -4 32 2 20 -49 33 -124 30
-27 0 -66 -2 -85 -2 -19 -1 -60 -5 -90 -10 -53 -9 -111 -16 -195 -24 -22 -2
-51 -7 -65 -10 -42 -10 -73 -15 -120 -20 -25 -3 -70 -8 -100 -11 -30 -4 -52
-3 -48 1 15 15 310 115 341 116 26 1 108 28 121 40 6 4 20 8 31 8 12 0 25 3
28 6 4 4 28 9 54 11 26 2 51 9 55 16 5 8 8 8 8 1 0 -6 12 -11 26 -11 18 0 28
7 34 23 6 14 18 24 28 24 10 0 45 9 78 20 32 11 81 23 109 26 27 4 63 13 78
21 15 7 32 11 37 8 6 -3 10 -1 10 6 0 7 8 9 23 4 35 -11 59 -7 86 13 35 25 78
36 84 19 3 -9 10 -9 33 3 16 8 32 19 35 23 4 5 17 14 29 20 30 15 35 31 15 50
-9 9 -22 35 -30 57 -14 40 -14 41 11 50 14 6 74 21 132 34 91 21 108 22 115
10 11 -19 28 -8 20 14 -3 9 -3 14 1 11 4 -4 26 -1 49 5 44 13 64 13 110 1 23
-6 27 -4 27 14 0 21 4 22 68 25 9 1 20 5 24 11 4 5 34 9 68 8 33 0 60 3 60 8
0 12 37 11 61 -1 16 -9 21 -7 30 14 9 19 20 25 58 28 25 2 48 1 51 -2 8 -10
49 -9 55 1 4 5 22 9 41 9 24 0 34 5 34 15 0 8 8 16 18 16 39 3 69 9 142 29 25
7 54 14 65 15 11 1 21 4 23 5 1 1 7 4 12 5 6 1 11 4 13 5 1 1 13 3 27 4 14 1
39 7 55 13 26 10 67 17 147 27 10 1 21 5 24 9 4 4 19 7 34 7 15 0 30 3 34 7 7
7 15 9 90 17 26 3 56 8 66 11 10 3 24 0 31 -8 30 -29 47 -26 103 17 50 39 63
44 127 50 39 3 79 11 90 16 10 6 31 12 46 15 78 13 98 19 111 32 7 7 18 10 24
7 7 -4 -11 -27 -43 -56z m-6540 -4 c6 -15 10 -28 9 -29 -8 -8 -186 -47 -223
-49 -19 -2 -15 -32 13 -101 l29 -70 58 3 c58 3 58 3 101 -44 24 -26 44 -49 44
-50 0 -2 18 -22 40 -46 22 -24 40 -50 40 -60 0 -9 4 -18 9 -20 5 -1 -2 -28
-16 -58 -15 -30 -32 -66 -38 -80 -32 -68 -167 -296 -184 -310 -3 -3 -12 -17
-20 -32 -8 -16 -18 -28 -23 -28 -4 0 -8 -7 -8 -15 0 -8 -4 -15 -10 -15 -5 0
-10 -6 -10 -13 0 -7 -9 -19 -20 -27 -11 -8 -20 -18 -20 -23 0 -14 -82 -127
-91 -127 -5 0 -8 -3 -6 -8 3 -12 -87 -131 -100 -131 -6 -1 -14 -9 -17 -19 -3
-10 -54 -65 -113 -124 -152 -150 -188 -181 -281 -245 -37 -25 -77 -49 -89 -54
-55 -21 -233 -110 -233 -117 1 -33 49 -51 158 -57 200 -12 292 -26 292 -45 0
-5 10 -11 23 -14 32 -9 78 -54 135 -133 110 -151 186 -307 247 -510 11 -40
-11 -25 -31 20 -69 157 -195 319 -368 475 -47 41 -167 122 -183 122 -6 0 -13
4 -15 8 -3 9 -148 63 -182 68 -95 15 -160 21 -209 20 -31 0 -57 2 -57 5 0 5
94 49 105 49 14 0 232 113 259 134 67 52 196 200 196 225 0 6 3 11 8 11 4 0
12 10 18 23 15 33 58 111 64 117 6 5 46 89 78 160 11 25 57 153 102 285 45
132 84 242 86 244 3 3 12 -5 20 -18 19 -27 35 -26 204 9 58 12 109 23 115 23
17 3 34 31 25 42 -4 5 -11 21 -15 35 -4 14 -20 53 -36 88 -16 35 -29 65 -29
67 0 3 -11 29 -25 59 -14 30 -25 58 -25 61 0 4 -6 21 -14 38 -8 18 -26 61 -41
97 -15 36 -33 80 -41 98 -8 18 -12 37 -9 42 3 5 49 18 103 30 53 11 111 25
127 29 50 15 61 12 74 -15z m-1761 -234 c2 -13 8 -30 14 -37 6 -7 8 -13 5 -13
-2 0 6 -37 19 -82 12 -45 20 -86 18 -90 -3 -4 -1 -8 5 -8 5 0 14 -21 20 -47
12 -52 15 -60 24 -83 14 -35 25 -90 18 -90 -4 0 -16 8 -27 18 -10 10 -39 32
-64 49 -25 18 -62 47 -84 66 l-39 33 17 90 c9 49 20 109 26 134 6 25 13 62 17
84 5 33 7 36 17 20 5 -11 12 -30 14 -44z m3393 -95 c-23 -14 -47 -25 -52 -25
-5 0 -9 -4 -9 -10 0 -5 -5 -10 -11 -10 -7 0 -34 -16 -60 -35 -27 -19 -52 -35
-55 -35 -3 0 -12 -6 -19 -12 -29 -26 -44 -38 -49 -38 -6 0 -81 -65 -135 -117
-24 -24 -48 -43 -52 -43 -5 0 -9 -4 -9 -9 0 -4 -15 -24 -33 -43 -19 -20 -56
-62 -83 -94 -27 -33 -52 -60 -56 -62 -5 -2 -8 -8 -8 -14 0 -6 -8 -18 -18 -27
-25 -22 -132 -183 -132 -198 0 -7 -4 -13 -9 -13 -7 0 -57 -145 -80 -230 -9
-35 -81 -81 -298 -191 -111 -56 -130 -81 -75 -100 63 -22 97 -44 97 -64 0 -22
-25 -107 -34 -115 -6 -5 -47 -79 -65 -117 -6 -13 -14 -23 -18 -23 -5 0 -8 -7
-8 -15 0 -8 -4 -15 -10 -15 -5 0 -10 -5 -10 -11 0 -6 -6 -16 -12 -24 -28 -29
-48 -56 -48 -64 0 -5 -4 -11 -8 -13 -4 -1 -23 -22 -42 -45 -18 -24 -36 -40
-39 -37 -3 3 0 8 6 12 18 11 107 190 132 263 32 98 30 161 -8 199 -38 38 -89
60 -160 66 -72 7 -73 7 -41 20 18 8 36 11 41 8 5 -3 9 -1 9 3 0 5 24 17 53 27
153 53 427 210 427 245 0 6 4 11 9 11 5 0 12 12 16 28 3 15 12 34 19 42 8 8
26 53 41 100 16 47 34 94 42 106 7 11 24 53 38 94 14 40 29 78 34 84 5 6 12
22 16 36 13 41 133 298 145 310 3 3 14 22 25 43 31 59 59 87 76 77 7 -5 21 -7
29 -5 8 3 33 7 55 10 22 2 83 14 135 26 52 11 106 23 120 25 14 3 66 13 115
24 117 24 117 24 66 -5z m2490 -62 c0 -16 2 -37 5 -48 2 -11 7 -39 10 -62 7
-47 19 -40 -101 -65 -27 -6 -83 -20 -124 -30 -41 -11 -84 -22 -96 -24 -12 -2
-67 -17 -123 -34 -56 -16 -112 -32 -124 -34 -13 -3 -23 -5 -23 -6 0 -1 -11 -4
-25 -6 -31 -6 -381 -111 -435 -131 -22 -8 -53 -21 -70 -28 -16 -8 -42 -17 -58
-20 -15 -4 -30 -11 -33 -16 -3 -5 -16 -9 -29 -9 -13 0 -26 -4 -29 -9 -3 -5
-18 -12 -33 -16 -15 -3 -48 -15 -73 -26 -25 -11 -54 -24 -65 -28 -116 -46
-155 -80 -155 -133 0 -30 46 -49 105 -43 73 6 180 17 196 20 17 4 76 10 179
21 36 3 74 8 85 11 11 2 45 6 75 8 30 2 56 5 58 6 4 3 18 5 86 13 38 4 79 9
90 11 12 2 46 6 77 10 31 3 66 7 77 10 23 4 113 8 127 5 6 -1 14 -2 18 -1 5 1
6 -3 2 -9 -3 -5 -2 -10 4 -10 6 0 9 -39 9 -95 0 -52 -5 -95 -10 -95 -5 0 -7
-4 -4 -9 8 -13 -85 -278 -104 -299 -9 -10 -15 -23 -12 -30 2 -6 -1 -12 -7 -12
-6 0 -11 -5 -11 -11 0 -16 -56 -84 -114 -140 l-49 -47 -53 18 c-29 10 -54 16
-57 14 -2 -3 -17 1 -33 7 -37 14 -230 19 -314 8 -112 -15 -132 -19 -215 -39
-92 -23 -89 -22 -216 -83 -52 -25 -109 -48 -127 -52 -18 -3 -47 -7 -64 -10
-48 -9 -171 -49 -268 -88 -85 -34 -262 -92 -310 -101 -14 -2 -25 -5 -25 -6 0
-1 -9 -3 -20 -5 -61 -11 -374 -102 -397 -115 -10 -6 -27 -10 -37 -10 -11 0
-22 -4 -25 -9 -3 -5 -18 -12 -33 -16 -16 -3 -41 -13 -58 -20 -16 -7 -52 -23
-80 -35 -77 -33 -158 -71 -180 -83 -11 -6 -45 -23 -75 -39 -66 -35 -72 -39
-176 -105 -75 -49 -122 -86 -212 -170 -19 -18 -37 -33 -39 -33 -8 0 -63 58
-63 67 0 5 8 15 18 24 9 8 33 33 52 55 67 77 135 121 425 278 33 18 76 42 95
53 19 11 60 34 90 50 53 30 153 87 215 123 173 100 209 119 219 113 6 -3 8 -3
4 2 -9 9 13 23 118 80 38 21 102 56 144 80 41 23 100 56 130 72 56 30 83 45
180 102 82 47 91 53 140 87 25 17 50 33 55 35 23 9 125 83 125 90 0 5 4 9 10
9 14 0 57 36 122 103 60 62 93 131 77 160 -9 15 -85 45 -132 52 -12 2 -35 6
-52 9 -16 3 -46 7 -66 10 -60 9 -89 23 -83 41 3 8 10 15 15 15 9 0 21 8 54 38
7 6 16 12 19 12 3 0 30 16 61 35 75 49 390 205 412 205 4 0 20 6 35 14 14 8
43 19 65 26 21 7 43 16 48 20 18 13 107 40 115 35 5 -3 10 -1 12 3 1 5 57 25
123 46 66 20 129 41 140 45 11 4 54 18 95 31 41 12 84 26 95 30 21 9 122 40
195 60 25 7 58 16 74 21 16 5 31 7 34 4 3 -3 10 -1 16 4 6 5 36 14 66 20 30 6
66 14 80 17 14 3 36 7 50 8 14 2 36 8 50 14 37 16 40 15 41 -15z m-7137 -211
c3 -5 8 -31 11 -58 20 -160 25 -192 35 -220 11 -28 7 -30 -48 -39 -31 -4 -42
-3 -42 7 0 7 -11 36 -25 63 -13 28 -25 53 -25 57 0 4 -13 36 -30 71 -16 36
-30 72 -30 80 0 15 50 30 103 31 15 1 27 4 27 8 0 11 18 10 24 0z m1086 -867
c14 -2 39 -6 55 -9 156 -26 201 -38 246 -66 27 -16 53 -30 58 -30 5 0 11 -6
14 -14 6 -15 -41 -66 -61 -66 -7 0 -12 -4 -12 -9 0 -5 -8 -11 -17 -15 -10 -3
-47 -24 -83 -46 -36 -22 -72 -43 -80 -47 -88 -40 -406 -278 -429 -322 -14 -26
12 -52 56 -56 82 -8 201 -16 253 -18 51 -2 248 -60 260 -77 3 -4 15 -10 28
-14 12 -4 22 -12 22 -17 0 -5 4 -9 10 -9 26 0 140 -117 254 -260 57 -71 107
-129 161 -185 28 -28 69 -72 93 -98 40 -44 168 -146 221 -176 57 -32 204 -74
254 -73 9 1 17 -5 18 -11 1 -7 3 -34 5 -62 2 -27 13 -72 23 -100 37 -100 13
-164 -107 -284 -42 -41 -93 -80 -137 -102 -38 -20 -104 -55 -145 -79 -98 -55
-180 -99 -315 -168 -60 -31 -111 -60 -113 -64 -2 -4 -9 -8 -15 -8 -7 0 -26
-13 -43 -28 -18 -15 -58 -49 -90 -77 -64 -56 -61 -52 -138 -150 -31 -38 -58
-82 -62 -97 -3 -16 -9 -28 -14 -28 -4 0 -11 -12 -14 -26 -25 -99 -338 -38
-579 112 -23 15 -43 31 -45 35 -2 5 -10 9 -17 9 -7 0 -15 3 -17 8 -1 4 -32 29
-68 57 -141 108 -220 189 -220 224 0 46 39 91 125 145 46 30 179 96 191 96 3
0 20 6 37 14 38 18 223 75 264 82 15 3 42 9 58 14 112 33 358 41 925 30 130
-3 183 0 285 16 63 10 111 40 133 83 28 53 28 85 1 110 -12 11 -82 40 -155 65
-125 41 -136 47 -184 98 -54 55 -220 281 -220 298 0 6 -4 10 -10 10 -5 0 -10
4 -10 9 0 12 -84 135 -135 197 -89 107 -294 294 -324 294 -6 0 -11 4 -11 8 0
4 -12 13 -27 19 -16 6 -66 28 -113 47 -47 20 -97 38 -111 41 -14 2 -45 12 -69
20 -53 19 -192 30 -368 29 -73 0 -129 2 -125 6 4 3 26 12 48 19 75 25 208 88
287 137 163 100 555 380 569 406 10 19 8 25 -19 48 -31 26 -120 60 -175 66
-16 2 -32 6 -36 8 -29 18 -320 26 -456 12 -62 -6 -77 -5 -68 4 6 7 38 16 70
19 59 8 367 5 413 -4z m50 -139 c19 -4 47 -9 63 -11 15 -2 32 -7 37 -10 15 -9
12 -25 -5 -25 -7 0 -18 -7 -23 -16 -12 -22 -44 -21 -132 3 -123 34 -218 47
-353 46 -71 -1 -127 1 -124 3 18 19 449 27 537 10z m-235 -60 c17 -3 50 -7 75
-11 57 -8 140 -34 140 -45 0 -4 -16 -20 -36 -35 -29 -22 -38 -25 -45 -14 -5 8
-9 17 -9 22 0 4 -7 7 -15 7 -8 0 -15 4 -15 8 0 25 -190 56 -365 61 -23 1 -27
4 -15 11 14 9 213 6 285 -4z m-164 -50 c31 -3 78 -11 105 -16 27 -6 66 -13 86
-16 35 -6 78 -35 78 -53 0 -11 -58 -52 -62 -43 -8 20 -76 56 -154 82 -47 16
-89 29 -92 28 -14 -4 -72 14 -72 21 0 5 12 7 28 5 15 -1 52 -5 83 -8z m-249
-53 c10 -9 18 -22 18 -30 0 -16 21 -55 35 -65 6 -4 6 -8 1 -8 -5 0 -1 -9 9
-20 11 -12 15 -24 9 -29 -19 -17 -96 -41 -132 -41 -37 0 -98 -31 -86 -43 12
-12 -62 -36 -96 -32 -25 3 -40 -1 -57 -16 -12 -12 -29 -19 -37 -16 -10 4 -28
-6 -47 -24 -31 -30 -172 -101 -246 -123 -12 -4 -52 -22 -90 -40 -37 -18 -85
-39 -107 -47 -82 -30 -111 -90 -54 -117 51 -24 121 -30 328 -25 l210 5 9 -24
c5 -13 16 -30 25 -37 9 -7 16 -18 16 -23 0 -6 20 -39 45 -74 25 -34 45 -65 45
-68 0 -6 52 -57 173 -169 l58 -54 -58 -7 c-102 -11 -211 -51 -290 -105 -29
-20 -53 -42 -53 -48 0 -7 -4 -13 -8 -13 -5 0 -14 -19 -21 -42 -7 -23 -18 -53
-24 -67 -19 -47 -7 -130 29 -199 7 -14 10 -30 6 -36 -13 -21 -2 -172 17 -238
11 -36 17 -69 14 -72 -8 -7 -57 13 -197 80 -28 13 -56 24 -63 24 -7 0 -13 4
-13 9 0 5 -12 12 -27 15 -16 4 -50 18 -78 31 -97 46 -141 64 -185 80 -24 9
-54 22 -65 29 -11 7 -51 23 -90 36 -38 13 -72 26 -75 30 -3 4 -34 18 -70 31
-36 12 -67 26 -70 29 -3 4 -29 15 -57 24 -29 10 -55 21 -58 26 -3 5 -29 16
-58 26 -28 9 -57 20 -62 25 -6 4 -37 18 -70 30 -33 12 -69 28 -80 35 -11 7
-39 18 -62 25 -24 7 -43 15 -43 19 0 3 -24 14 -52 25 -29 10 -62 24 -73 31
-11 6 -44 19 -72 29 -29 9 -55 20 -58 25 -3 5 -22 14 -43 21 -39 12 -113 44
-197 85 -28 13 -54 24 -58 24 -4 0 -38 14 -75 31 -37 17 -87 40 -112 51 -25
11 -81 37 -125 58 -44 21 -102 48 -130 60 -27 12 -73 33 -100 46 -28 13 -55
24 -60 24 -6 0 -23 11 -39 25 -16 14 -35 25 -42 25 -7 0 -16 5 -20 12 -4 7 -3
8 4 4 7 -4 33 2 59 14 26 11 63 23 83 27 32 5 61 10 68 12 1 1 4 1 7 1 3 0 20
7 38 16 44 23 126 44 144 37 8 -3 18 0 23 7 4 7 37 14 74 17 36 3 66 10 66 14
0 5 11 9 24 9 14 0 28 5 31 10 3 6 12 10 20 10 8 0 26 5 42 12 15 6 34 10 42
9 7 -1 30 5 52 13 49 20 99 29 99 18 0 -12 60 -8 68 4 16 22 66 45 85 40 11
-3 30 0 41 7 12 6 23 12 26 12 43 11 77 20 134 37 38 11 83 21 100 22 18 2 36
5 42 8 5 3 25 9 44 14 46 10 49 11 58 14 4 1 12 3 17 4 6 1 19 6 30 10 57 23
75 27 108 29 19 1 33 5 31 8 -3 6 78 27 128 33 13 2 35 8 50 14 15 6 40 13 55
16 15 2 29 5 31 5 1 1 4 1 7 2 2 0 19 5 37 10 44 13 218 50 243 52 11 0 24 6
28 11 6 8 10 7 14 -1 7 -18 33 -16 33 2 0 14 57 36 108 41 13 2 51 12 85 23
60 20 161 48 202 56 11 3 44 6 74 9 29 2 56 8 60 13 8 12 81 33 114 33 13 0
38 7 53 15 36 18 34 18 56 -2z m5768 -87 c64 -9 120 -26 120 -38 0 -4 5 -8 11
-8 15 0 99 -41 123 -60 10 -8 37 -32 60 -52 22 -21 44 -38 49 -38 4 0 7 -7 7
-15 0 -8 6 -15 13 -15 6 0 22 -16 35 -35 12 -19 21 -35 19 -35 -2 0 -23 7 -48
15 -101 34 -355 38 -525 9 -121 -20 -162 -28 -254 -51 -58 -14 -109 -28 -115
-31 -5 -4 -17 -8 -26 -9 -72 -11 -508 -205 -644 -287 -52 -30 -156 -90 -220
-125 -76 -43 -184 -101 -240 -131 -97 -53 -200 -114 -203 -122 -2 -4 -8 -8
-13 -8 -9 0 -21 -8 -54 -37 -7 -7 -16 -13 -19 -13 -3 0 -44 -27 -90 -60 -47
-33 -87 -60 -90 -60 -3 0 -45 -28 -93 -61 -191 -134 -421 -259 -548 -298 -79
-25 -133 -27 -65 -4 25 9 117 52 205 97 88 44 163 79 168 78 4 -1 7 2 7 7 0 5
20 20 45 32 25 12 45 26 45 31 0 4 5 8 11 8 12 0 195 127 221 153 7 7 31 27
53 43 22 16 49 37 60 46 11 9 53 44 92 76 40 33 79 66 86 74 8 7 38 33 68 58
29 25 114 105 189 178 74 74 155 150 179 170 24 21 52 45 62 55 11 9 23 17 28
17 4 0 20 11 35 25 15 14 30 25 33 25 3 0 27 16 53 35 26 19 50 35 54 35 3 0
29 15 58 34 51 31 122 72 198 112 19 10 44 19 55 21 19 3 50 15 144 56 60 26
208 73 261 82 8 1 33 6 55 10 22 4 64 8 94 10 29 2 55 5 56 7 6 5 139 1 195
-6z m-5517 -96 c-7 -25 -53 -60 -128 -95 -33 -15 -78 -36 -99 -46 -22 -11 -43
-19 -48 -19 -5 0 -27 -9 -51 -19 -23 -10 -67 -30 -98 -44 -142 -62 -127 -115
26 -92 22 3 135 7 250 9 172 4 229 1 315 -14 122 -22 215 -52 283 -92 26 -15
52 -28 57 -28 6 0 10 -4 10 -8 0 -4 12 -15 28 -24 54 -33 206 -174 267 -249
42 -52 154 -210 180 -256 16 -26 32 -52 37 -58 4 -5 35 -46 67 -90 69 -93 130
-149 204 -187 28 -15 48 -28 42 -29 -5 0 -19 -2 -30 -3 -135 -19 -301 -24
-399 -11 -86 11 -107 14 -115 20 -5 3 -33 10 -62 15 -29 6 -81 24 -116 40 -35
17 -66 30 -69 30 -16 0 -128 59 -188 99 -101 67 -140 87 -199 107 -61 20 -161
66 -165 77 -2 4 -8 7 -13 7 -11 0 -111 73 -145 105 -11 11 -47 45 -80 75 -96
91 -196 213 -227 282 -22 46 -21 55 2 61 22 5 208 1 266 -7 80 -11 130 -18
140 -20 6 -2 28 -6 50 -10 59 -11 288 -87 305 -101 8 -7 26 -16 40 -20 24 -7
129 -70 140 -84 3 -3 23 -19 44 -35 22 -16 139 -129 261 -250 231 -230 259
-256 275 -256 6 0 10 -4 10 -9 0 -8 147 -84 189 -96 33 -10 24 12 -14 33 -70
40 -168 104 -203 134 -20 17 -145 140 -277 273 -245 246 -329 313 -430 345
-22 7 -49 19 -60 25 -40 25 -280 100 -355 110 -76 11 -196 19 -280 17 -144 -3
-514 -2 -517 1 -1 2 23 14 55 27 31 13 75 31 97 41 22 10 69 29 105 44 36 14
83 34 105 45 22 10 72 31 110 46 39 15 98 40 133 55 34 16 65 29 68 29 23 0
194 93 194 105 0 8 4 15 9 15 5 0 7 -9 4 -20z m4452 -139 c-14 -13 -77 -50
-97 -57 -10 -4 -18 -10 -18 -15 0 -5 -5 -9 -10 -9 -6 0 -23 -11 -38 -25 -15
-14 -32 -25 -39 -25 -6 0 -13 -4 -15 -8 -1 -5 -30 -28 -63 -52 -52 -38 -142
-121 -309 -285 -90 -88 -192 -175 -205 -175 -13 0 -78 -44 -91 -60 -3 -4 -9
-9 -15 -11 -5 -2 -41 -25 -80 -50 -68 -45 -184 -107 -276 -148 -73 -32 -151
-62 -154 -59 -2 2 98 75 221 163 123 88 224 163 224 167 0 5 6 8 14 8 8 0 16
3 18 8 2 4 32 30 68 56 36 27 83 63 105 80 97 76 152 119 182 143 64 52 288
212 313 225 14 7 32 18 40 25 9 7 56 32 105 56 111 55 138 66 120 48z m1285
-65 c106 -10 145 -17 207 -37 34 -11 66 -26 72 -32 11 -14 33 -80 50 -152 7
-27 17 -69 23 -92 6 -24 11 -72 12 -108 0 -36 3 -65 6 -65 12 0 1 -197 -15
-265 -10 -43 -46 -155 -50 -155 -2 0 -28 24 -57 53 -65 62 -95 87 -107 87 -5
0 -11 3 -13 8 -15 34 -341 156 -478 178 -8 2 -31 5 -50 9 -56 10 -348 13 -425
4 -38 -4 -97 -10 -130 -14 -162 -18 -523 -108 -620 -155 -11 -5 -58 -25 -105
-43 -95 -38 -140 -59 -410 -184 -36 -17 -85 -40 -110 -51 -25 -11 -70 -31
-100 -45 -30 -14 -100 -44 -155 -67 -55 -23 -113 -48 -130 -55 -65 -27 -135
-54 -135 -50 0 1 24 18 53 36 28 19 107 73 175 121 67 49 124 88 126 88 6 0
277 182 320 215 35 27 178 110 311 180 50 27 113 60 140 75 54 29 212 121 260
151 17 10 80 43 140 73 93 45 152 70 330 141 11 4 27 9 35 11 8 2 23 7 35 13
26 13 143 49 175 55 14 3 25 5 25 6 0 1 11 4 25 6 14 3 43 9 65 15 45 13 64
16 115 24 20 3 47 8 60 11 14 3 72 8 130 11 58 3 106 7 108 8 2 2 11 1 20 -1
9 -2 42 -6 72 -8z m-1635 -4 c-28 -24 -145 -100 -175 -114 -19 -9 -84 -28
-145 -43 -120 -30 -335 -102 -430 -145 -33 -14 -76 -33 -95 -40 -38 -16 -231
-113 -294 -149 -68 -39 -183 -128 -205 -160 -22 -31 -41 -33 -41 -5 0 8 21 35
48 60 125 119 399 285 622 377 63 27 124 52 135 57 11 5 65 23 120 40 55 17
112 35 128 40 15 5 27 6 27 3 0 -3 6 -1 13 5 13 10 151 51 201 59 16 3 38 8
50 13 28 11 53 12 41 2z m-260 -191 c-49 -44 -133 -104 -162 -116 -36 -15
-137 -43 -183 -51 -14 -3 -32 -7 -40 -11 -8 -3 -19 -7 -25 -8 -152 -36 -429
-156 -556 -240 l-54 -37 40 36 c49 44 64 53 292 166 202 100 392 182 405 174
4 -3 8 -1 8 4 0 4 28 17 63 27 242 73 225 68 212 56z m-245 -196 c0 -14 -142
-96 -185 -106 -163 -40 -372 -113 -450 -158 -46 -26 -115 -52 -115 -43 0 5 10
14 23 20 12 6 45 25 72 41 50 31 230 121 240 121 3 0 24 9 48 19 59 28 198 71
208 66 4 -3 9 -1 11 4 1 6 14 12 28 14 14 2 32 7 40 10 43 16 80 22 80 12z
m-1280 -128 c0 -8 3 -8 11 0 13 13 92 -10 120 -33 8 -8 20 -14 26 -14 31 0
184 -187 198 -242 4 -14 14 -34 23 -45 10 -10 23 -31 31 -46 8 -15 30 -37 48
-48 38 -24 36 -35 -9 -42 -107 -17 -177 -29 -203 -37 -16 -5 -41 -11 -55 -14
-14 -3 -50 -10 -80 -16 -147 -28 -210 -19 -262 36 -50 54 -61 122 -33 206 32
92 127 148 257 151 37 1 68 4 68 7 -1 74 -291 61 -454 -19 -124 -63 -227 -166
-226 -229 1 -11 19 3 53 40 67 72 132 120 213 158 87 40 93 38 15 -6 -133 -74
-228 -161 -270 -247 l-20 -42 -1 56 c0 71 17 119 70 200 89 136 264 228 448
235 17 1 32 -3 32 -9z m1052 -47 c-12 -11 -26 -20 -31 -20 -6 0 -14 -6 -18
-13 -8 -13 -106 -57 -128 -57 -6 0 -38 -9 -71 -20 -32 -12 -63 -22 -69 -24 -5
-2 -23 -8 -38 -14 -16 -7 -31 -12 -35 -12 -12 0 -177 -83 -183 -93 -4 -5 -10
-4 -14 3 -10 16 14 35 85 67 30 14 97 45 147 69 51 24 98 44 103 44 6 0 18 5
28 11 18 10 220 78 236 79 6 0 0 -9 -12 -20z m1958 -75 c19 -3 44 -8 55 -10
11 -2 43 -6 70 -10 49 -6 255 -72 265 -86 3 -3 16 -10 30 -14 27 -8 83 -44 88
-57 2 -5 8 -6 13 -2 5 3 9 0 9 -5 0 -6 6 -11 13 -11 17 -1 140 -127 143 -147
2 -9 0 -22 -4 -27 -3 -6 -5 -21 -4 -33 2 -12 -6 -31 -17 -42 -12 -12 -18 -21
-15 -21 4 0 -5 -9 -19 -20 -14 -11 -29 -20 -33 -20 -16 0 -77 -54 -105 -94
-53 -72 -179 -196 -200 -196 -5 0 -9 -3 -9 -8 0 -7 -15 -15 -93 -47 -65 -27
-168 -19 -197 16 -3 3 -23 12 -45 19 -22 7 -49 18 -60 25 -23 14 -81 34 -119
41 -14 2 -38 9 -53 15 -74 28 -282 53 -458 53 -93 0 -305 -11 -340 -18 -18 -3
-109 -12 -215 -21 -19 -2 -87 -6 -150 -10 -63 -3 -133 -8 -155 -10 -22 -2 -87
-7 -145 -12 -118 -9 -720 -10 -790 0 -25 3 -52 6 -60 7 -8 0 46 16 120 35 74
19 143 39 152 45 10 5 27 10 37 10 11 0 23 5 26 10 3 6 15 10 26 10 10 0 27 4
37 9 9 5 44 20 77 32 33 12 96 39 140 59 118 55 251 118 331 156 39 19 74 34
78 34 3 0 49 20 102 45 52 25 97 45 99 45 2 0 28 11 57 24 29 13 64 27 78 31
14 4 30 11 36 16 6 5 19 10 30 12 10 1 26 7 34 12 8 5 22 10 30 12 8 1 23 6
35 12 35 18 178 62 230 72 28 5 61 11 75 14 52 10 137 24 180 29 25 4 56 8 70
11 14 3 65 7 114 10 49 3 91 6 93 8 5 6 274 -1 313 -8z m-3313 -277 c-35 -35
-70 -74 -79 -88 -17 -28 -50 -124 -54 -155 -1 -11 -3 -22 -3 -25 -1 -3 -12 8
-25 23 -17 20 -22 34 -17 45 4 10 16 35 26 57 34 74 110 168 180 224 30 23 30
23 33 2 2 -14 -16 -39 -61 -83z m54 -36 c-6 -2 -11 -8 -11 -14 0 -6 -11 -21
-24 -33 -14 -13 -22 -26 -19 -29 4 -3 1 -6 -5 -6 -7 0 -12 -7 -12 -15 0 -8 -4
-15 -9 -15 -14 0 -44 -109 -36 -137 8 -34 18 -22 45 60 12 37 26 67 31 67 5 0
9 6 9 13 0 16 49 72 56 64 4 -4 -6 -23 -22 -44 -44 -58 -73 -124 -74 -166 0
-35 -2 -38 -22 -31 -52 16 -68 34 -63 72 4 39 45 132 57 132 5 0 8 6 8 14 0 8
21 36 47 63 41 41 48 45 51 28 3 -10 -1 -21 -7 -23z m-2023 10 c29 -1 52 -7
52 -13 0 -5 -5 -7 -11 -4 -17 11 -222 8 -251 -4 -16 -6 -28 -9 -28 -6 0 2 -15
-1 -32 -6 -18 -5 -46 -12 -63 -15 -59 -10 -243 -67 -277 -85 -18 -10 -19 -8
-13 13 4 12 14 29 23 36 18 14 126 48 182 57 19 3 42 8 50 10 8 2 47 7 85 11
39 3 71 7 72 8 2 2 128 1 211 -2z m42 -59 c0 -4 -12 -8 -27 -9 -47 -1 -207
-14 -229 -18 -12 -3 -39 -7 -60 -10 -22 -4 -66 -14 -98 -23 -46 -13 -56 -19
-44 -26 12 -8 -2 -16 -61 -37 -42 -15 -83 -30 -92 -34 -10 -4 -23 0 -34 10
-33 33 -7 44 290 121 33 8 74 18 90 20 17 3 31 6 33 8 7 7 232 5 232 -2z m320
-87 c107 -36 169 -65 110 -52 -34 8 -135 24 -190 31 -25 4 -56 8 -70 10 -14 2
-59 7 -100 10 -41 4 -86 9 -100 10 -14 2 -76 4 -139 4 -63 1 -112 3 -110 5 2
2 40 7 84 11 44 4 82 9 84 11 3 2 75 3 160 1 150 -3 161 -5 271 -41z m-240
-50 c73 -10 127 -17 155 -22 60 -8 91 -12 155 -19 36 -4 67 -8 70 -10 3 -2 34
-6 69 -10 63 -6 115 -13 156 -20 26 -4 95 -14 148 -20 23 -3 83 -8 132 -11 50
-2 91 -8 93 -13 1 -4 13 -6 25 -4 12 2 63 -10 112 -27 l90 -31 -285 7 c-637
14 -697 11 -935 -46 -146 -35 -305 -92 -408 -147 -15 -8 -38 -20 -51 -27 -42
-21 -125 -81 -126 -89 0 -9 -50 -64 -51 -57 0 3 -2 19 -3 35 -2 17 -8 55 -15
85 -39 188 -43 240 -27 307 6 26 17 37 59 57 29 14 63 28 77 30 14 3 43 10 65
16 22 5 74 13 115 16 41 4 77 8 79 10 4 4 257 -4 301 -10z m1682 -151 c26 -25
50 -57 56 -73 5 -15 9 -81 10 -146 0 -105 -4 -129 -29 -205 -26 -77 -66 -168
-79 -181 -3 -3 -14 -23 -25 -45 -11 -22 -23 -42 -26 -45 -3 -3 -21 -27 -39
-55 -19 -27 -40 -56 -47 -65 -42 -51 -122 -168 -143 -208 -14 -26 -28 -49 -31
-52 -7 -6 -41 -115 -56 -177 -15 -65 -9 -211 10 -229 18 -18 3 -25 -43 -20
-28 3 -55 8 -60 11 -5 3 -22 7 -37 9 -33 5 -216 68 -253 88 -14 7 -39 23 -57
36 -17 12 -34 22 -37 22 -9 0 -61 46 -122 105 -126 124 -128 263 -6 423 52 69
79 94 178 164 93 65 118 81 169 107 17 8 51 30 77 48 26 18 52 33 58 33 5 0
10 5 10 10 0 6 7 10 15 10 9 0 18 7 21 15 4 8 12 15 19 15 6 0 24 11 39 25 15
14 29 25 31 25 9 0 145 118 162 141 6 8 26 31 43 49 50 53 118 152 125 183 4
15 10 27 14 27 4 0 28 -20 53 -45z m223 -69 c18 -8 36 -12 39 -9 3 3 8 -8 11
-23 3 -16 17 -51 31 -79 26 -53 43 -64 239 -150 97 -43 105 -47 98 -58 -3 -6
-1 -7 6 -3 9 6 95 -28 111 -44 3 -3 24 -17 47 -32 22 -15 53 -39 67 -53 14
-14 28 -25 32 -25 12 0 180 -178 209 -222 15 -24 36 -54 45 -68 43 -65 70
-163 73 -260 2 -55 -46 -161 -95 -211 -41 -43 -113 -99 -126 -99 -6 0 -12 -4
-14 -8 -9 -22 -136 -50 -226 -50 -103 1 -158 20 -187 64 -15 24 -15 28 4 66
16 34 19 55 16 136 -3 83 -8 127 -20 177 -1 6 -5 27 -10 48 -4 20 -11 40 -16
43 -5 3 -9 15 -9 28 0 12 -4 26 -8 31 -5 6 -16 31 -26 57 -17 46 -106 188
-142 225 -28 29 -57 66 -73 94 -125 211 -161 294 -169 382 l-4 57 31 0 c17 0
47 -6 66 -14z m2481 -15 c8 6 14 7 14 2 0 -11 29 -11 48 1 6 4 12 4 12 -1 0
-4 48 -8 108 -9 101 0 122 -2 197 -19 176 -38 209 -46 230 -56 11 -5 31 -13
45 -19 57 -23 123 -67 126 -83 3 -22 25 -43 92 -87 101 -66 148 -128 155 -202
4 -42 -20 -118 -45 -139 -10 -9 -18 -21 -18 -28 0 -23 -30 -10 -36 17 -22 94
-139 230 -252 294 -110 62 -165 88 -238 112 -89 29 -95 31 -209 51 -190 34
-343 42 -760 39 -705 -6 -946 -4 -1060 12 -79 10 -172 29 -206 43 -15 5 -29 8
-32 5 -2 -2 -24 5 -48 16 -24 11 -33 17 -21 14 13 -3 34 -7 45 -9 12 -2 38 -6
57 -10 67 -12 226 -19 435 -19 198 0 313 4 550 21 55 4 142 7 192 8 51 0 93 2
93 5 0 3 12 5 28 6 28 0 133 10 212 20 97 12 265 19 268 11 2 -4 10 -3 18 4z
m-1886 -111 c41 -12 95 -28 120 -35 101 -30 266 -45 532 -49 43 -1 78 -3 78
-6 0 -3 51 -3 112 0 143 7 1033 4 1073 -4 17 -3 59 -8 95 -11 35 -4 70 -11 77
-17 9 -7 13 -7 13 1 0 7 4 9 10 6 5 -3 24 -8 42 -11 18 -2 46 -6 62 -9 36 -5
149 -46 156 -56 3 -4 17 -10 32 -14 15 -4 32 -13 39 -21 6 -8 15 -14 20 -14
10 0 109 -63 172 -110 25 -19 52 -47 59 -62 7 -16 16 -28 20 -28 9 0 33 -55
42 -96 6 -25 0 -39 -31 -79 -52 -68 -90 -110 -147 -164 -27 -25 -62 -58 -78
-74 -16 -15 -31 -27 -34 -27 -5 0 -20 -11 -49 -37 -7 -7 -16 -13 -19 -13 -3 0
-54 -24 -113 -53 -59 -29 -142 -66 -183 -82 -41 -16 -79 -32 -84 -37 -6 -4
-20 -8 -32 -8 -13 0 -25 -4 -28 -9 -3 -5 -18 -11 -33 -14 -16 -3 -75 -17 -133
-31 -58 -14 -130 -29 -160 -34 -106 -14 -472 -4 -501 14 -4 2 -20 6 -36 8 -42
5 -83 17 -84 25 -1 3 -3 46 -5 95 -6 188 -110 414 -258 561 -61 60 -130 115
-145 115 -6 0 -11 3 -11 8 0 4 -19 16 -43 27 -23 11 -44 22 -47 26 -8 9 -117
59 -129 59 -6 0 -11 4 -11 8 0 4 -17 14 -37 21 -21 8 -40 17 -43 20 -3 3 -30
18 -60 33 -77 38 -134 72 -138 81 -2 4 -8 7 -14 7 -5 0 -24 11 -42 25 -18 14
-36 25 -39 25 -4 0 -15 7 -24 14 -53 44 -67 57 -53 53 8 -2 49 -14 90 -27z
m-1192 -59 c-3 -10 -252 -191 -262 -191 -2 0 -41 -22 -86 -50 -45 -27 -84 -50
-87 -50 -7 0 -128 -86 -147 -105 -8 -8 -19 -15 -25 -15 -6 0 -11 -4 -11 -9 0
-5 -12 -22 -27 -38 -40 -42 -63 -72 -63 -82 0 -5 -6 -16 -13 -23 -8 -7 -22
-37 -31 -66 -10 -28 -21 -54 -25 -56 -4 -3 -23 -1 -42 4 -19 5 -46 12 -61 15
-16 3 -28 11 -28 18 0 23 73 122 139 187 59 59 201 170 217 170 3 0 18 8 32
19 15 10 83 48 152 83 221 115 329 174 345 189 12 12 28 12 23 0z m515 -49 c6
-15 11 -31 11 -37 1 -5 7 -16 14 -23 6 -7 12 -22 12 -33 0 -10 5 -19 10 -19 6
0 17 -18 26 -40 9 -22 20 -40 25 -40 5 0 9 -5 9 -11 0 -9 46 -76 61 -89 27
-23 127 -176 154 -235 57 -125 81 -219 91 -356 6 -77 4 -91 -16 -132 -60 -120
-232 -225 -413 -252 -23 -4 -45 -9 -50 -12 -11 -6 -202 -6 -252 1 -57 7 -126
33 -145 54 -48 51 -64 158 -43 282 10 61 52 170 73 190 3 3 14 22 25 43 11 20
23 37 27 37 5 0 8 6 8 13 0 7 9 23 20 35 11 12 20 24 20 27 0 3 13 20 30 38
37 41 120 168 120 185 0 6 4 12 9 12 5 0 12 11 15 25 4 14 11 25 16 25 6 0 10
6 10 13 0 6 7 26 16 42 33 62 84 217 84 256 0 44 14 45 33 1z m937 -154 c91
-45 167 -86 168 -90 2 -4 10 -8 19 -8 18 0 123 -62 123 -72 0 -5 5 -8 11 -8 6
0 26 -12 44 -27 18 -16 41 -35 51 -44 53 -44 142 -158 187 -241 29 -53 70
-169 62 -176 -3 -3 0 -11 6 -19 14 -16 21 -153 9 -173 -15 -24 -19 -8 -10 39
9 51 -1 88 -52 184 -104 199 -295 390 -545 546 -46 28 -87 51 -93 51 -5 0 -10
4 -10 8 0 5 -18 17 -40 28 -22 10 -40 22 -40 27 0 4 -7 7 -15 7 -8 0 -15 5
-15 10 0 6 -7 10 -15 10 -8 0 -15 3 -15 8 0 4 -18 18 -40 32 -22 14 -40 28
-40 33 0 4 19 -3 43 -17 23 -15 116 -63 207 -108z m0 -86 c0 -4 17 -16 38 -27
20 -11 46 -28 56 -37 11 -10 23 -18 28 -18 7 0 35 -21 63 -47 8 -7 18 -13 23
-13 6 0 12 -3 14 -8 2 -4 26 -25 53 -47 71 -57 165 -154 222 -230 45 -59 130
-205 120 -205 -2 0 -19 21 -37 48 -19 26 -37 49 -40 52 -4 3 -35 39 -71 80
-90 107 -307 320 -324 320 -8 0 -15 5 -15 10 0 6 -7 10 -15 10 -8 0 -15 5 -15
10 0 6 -5 10 -10 10 -6 0 -21 10 -34 23 -12 12 -38 34 -56 50 -24 19 -29 27
-17 27 9 0 17 -3 17 -8z m243 -267 c53 -52 95 -95 94 -95 -2 0 20 -24 50 -54
29 -30 53 -58 53 -62 0 -4 11 -16 24 -28 46 -42 176 -242 176 -273 0 -5 -15
-9 -32 -9 -30 1 -36 6 -71 76 -46 89 -165 270 -178 270 -5 0 -9 5 -9 10 0 6
-20 32 -44 58 -25 26 -60 64 -80 85 -19 20 -39 37 -43 37 -5 0 -19 18 -32 40
-12 22 -18 40 -13 40 4 0 52 -43 105 -95z m98 -216 c24 -35 46 -66 49 -69 12
-11 80 -108 80 -113 0 -4 13 -27 30 -53 16 -26 27 -50 25 -54 -5 -8 -60 -4
-74 4 -4 3 -6 18 -4 33 5 32 -59 151 -129 240 -59 76 -107 146 -107 158 -1 16
82 -77 130 -146z m-92 -311 c11 -10 32 -20 46 -24 14 -3 25 -9 25 -14 0 -7 67
-30 105 -36 11 -2 62 -6 113 -10 50 -4 92 -9 92 -11 0 -5 -169 -173 -174 -173
-2 0 -59 -55 -127 -121 l-123 -122 -71 23 c-38 12 -75 26 -81 31 -6 5 -42 20
-80 35 -38 14 -73 29 -79 34 -5 4 -35 15 -65 25 -30 10 -75 28 -100 40 -25 12
-70 30 -100 40 -30 10 -75 28 -100 40 -25 13 -62 28 -84 35 l-38 12 21 21 21
21 22 -21 c41 -37 137 -57 258 -54 115 3 140 5 140 13 0 5 6 8 14 8 64 0 292
169 312 233 4 14 8 15 19 5 7 -7 22 -21 34 -30z"/>
<path d="M12948 7175 c-2 -1 -29 -5 -61 -9 -32 -3 -62 -8 -65 -10 -4 -2 -23
-7 -42 -10 -39 -6 -516 -105 -580 -120 -8 -2 -73 -16 -145 -31 -71 -15 -137
-28 -145 -30 -127 -26 -195 -47 -216 -64 -24 -19 -55 -102 -49 -133 5 -23 62
-167 101 -256 13 -29 24 -56 24 -60 0 -5 11 -32 25 -60 14 -29 25 -54 25 -57
0 -2 14 -34 30 -70 17 -36 30 -68 30 -70 0 -2 11 -29 25 -59 14 -30 25 -59 25
-63 0 -16 41 -54 51 -48 9 6 24 10 80 19 75 12 181 37 200 46 10 6 19 18 19
26 0 18 -59 164 -71 179 -5 5 -9 15 -9 22 0 7 -11 37 -25 67 -14 30 -25 58
-25 61 0 4 -6 21 -14 38 -52 115 -66 149 -66 162 0 7 -4 17 -10 20 -5 3 -10
17 -10 30 0 21 8 25 75 40 95 21 148 17 154 -10 2 -11 19 -53 37 -94 19 -40
36 -81 37 -91 2 -9 10 -29 20 -43 9 -15 17 -31 17 -37 0 -6 9 -30 20 -52 11
-23 20 -45 20 -49 0 -4 15 -40 33 -81 19 -40 39 -86 46 -102 11 -27 14 -28 59
-22 46 6 70 10 122 21 42 9 72 14 115 21 22 3 44 9 48 13 8 8 -54 182 -72 205
-5 6 -14 29 -21 51 -7 22 -16 45 -20 50 -4 6 -13 28 -20 50 -7 22 -16 45 -20
50 -7 11 -35 76 -69 163 l-21 53 23 8 c13 5 39 12 58 15 19 3 56 10 83 15 35
6 53 6 61 -2 12 -12 48 -100 47 -114 0 -4 5 -15 12 -23 13 -14 35 -73 37 -95
0 -5 6 -17 13 -25 14 -16 41 -90 38 -102 -1 -5 1 -8 6 -8 4 0 13 -15 20 -32 8
-18 22 -51 32 -73 10 -22 26 -59 35 -82 21 -52 31 -53 175 -23 52 11 106 23
120 26 14 3 30 6 37 8 7 1 15 5 18 8 7 7 -101 287 -116 302 -5 6 -9 16 -9 23
0 7 -11 37 -25 67 -14 30 -25 58 -25 61 0 4 -13 36 -30 72 -16 35 -30 66 -30
69 0 21 -77 159 -104 186 -27 27 -127 73 -138 63z"/>
<path d="M11350 6848 c-25 -4 -56 -9 -70 -12 -14 -3 -41 -9 -60 -13 -19 -4
-37 -8 -40 -8 -3 -1 -25 -5 -50 -9 -25 -4 -58 -11 -75 -16 -16 -5 -45 -12 -63
-15 -18 -3 -65 -12 -105 -21 -39 -8 -83 -18 -97 -20 -52 -9 -156 -46 -172 -61
-23 -20 -48 -97 -42 -129 3 -14 16 -48 29 -77 14 -28 25 -54 25 -59 0 -4 13
-36 28 -70 29 -63 76 -179 77 -188 1 -3 11 -25 22 -50 12 -25 33 -72 47 -105
43 -95 67 -120 141 -145 62 -21 128 -25 150 -9 6 4 24 9 40 12 17 3 66 13 110
22 44 10 91 19 105 21 14 2 44 8 68 14 24 6 47 8 52 5 4 -3 10 -1 12 4 1 5 17
11 34 14 98 15 213 42 239 57 50 27 81 112 61 165 -65 172 -83 215 -98 243
-10 18 -18 37 -18 42 0 5 -11 34 -25 64 -14 30 -25 57 -25 59 0 3 -21 49 -46
103 -27 59 -59 110 -79 129 -46 41 -117 63 -175 53z m-53 -346 c12 -24 26 -55
32 -70 5 -15 22 -54 35 -87 14 -33 26 -65 26 -71 0 -6 -26 -17 -57 -24 -32 -7
-74 -17 -93 -22 -19 -5 -62 -11 -95 -14 l-60 -6 -22 52 c-13 28 -23 57 -23 64
0 7 -4 16 -9 22 -5 5 -19 40 -31 78 -25 75 -21 84 33 87 49 3 52 4 58 11 3 5
32 11 65 14 32 4 61 8 64 11 2 2 16 3 30 1 18 -2 31 -15 47 -46z"/>
<path d="M3070 5133 c-14 -2 -45 -8 -70 -14 -56 -14 -57 -14 -160 -33 -47 -9
-103 -21 -125 -26 -22 -5 -74 -16 -115 -25 -169 -34 -215 -53 -247 -101 -19
-30 -22 -93 -5 -126 6 -13 30 -70 53 -128 41 -105 84 -208 120 -287 10 -23 20
-48 21 -55 2 -7 6 -15 9 -18 3 -3 21 -35 39 -72 18 -37 42 -73 54 -81 31 -20
113 -46 134 -43 17 3 128 19 147 21 6 1 21 5 35 10 14 4 36 9 50 10 14 1 30 4
35 7 6 3 26 9 45 12 19 3 56 9 83 14 26 5 47 7 47 4 0 -2 6 0 13 6 6 5 29 13
50 16 77 12 177 38 182 47 4 5 3 15 -2 22 -4 6 -8 19 -10 27 -1 8 -6 23 -11
35 -6 11 -24 58 -42 105 -50 131 -55 134 -192 104 -40 -8 -80 -17 -89 -19 -9
-2 -32 -6 -50 -9 -19 -3 -65 -12 -104 -21 -96 -20 -114 -19 -124 8 -5 12 -6
25 -2 28 6 6 106 29 151 35 14 2 57 10 95 19 39 9 79 18 90 21 90 18 116 29
121 51 4 13 2 29 -3 36 -5 6 -16 32 -23 56 -8 24 -20 45 -27 48 -8 3 -40 0
-71 -6 -66 -14 -92 -19 -129 -26 -26 -4 -171 -35 -254 -54 -34 -8 -36 -6 -47
22 -6 17 -10 32 -9 33 1 2 18 5 37 7 19 2 42 7 50 10 13 5 49 14 85 22 6 2 28
6 50 9 22 4 55 11 73 17 18 6 39 8 47 5 8 -3 17 -1 20 5 4 5 10 7 15 4 5 -3
11 -1 14 4 3 5 22 12 42 16 36 6 36 7 30 44 -6 37 -80 197 -94 204 -4 2 -18 2
-32 0z"/>
<path d="M2110 4933 c-36 -7 -78 -15 -95 -18 -134 -26 -151 -41 -121 -108 67
-157 96 -231 92 -235 -3 -2 -22 -8 -43 -12 -21 -4 -83 -17 -138 -28 -54 -11
-103 -18 -108 -15 -8 5 -77 146 -77 158 0 16 -53 121 -66 131 -11 9 -28 9 -67
-1 -29 -7 -91 -20 -139 -30 -48 -10 -95 -23 -105 -30 -17 -12 -17 -16 1 -67
10 -29 25 -63 32 -75 8 -12 14 -29 14 -37 0 -8 9 -31 20 -53 28 -56 66 -143
104 -241 40 -101 68 -167 102 -238 13 -28 24 -54 24 -58 0 -4 9 -28 21 -53
l21 -46 46 6 c26 4 58 9 72 12 85 17 126 23 131 19 4 -2 9 0 11 6 1 5 16 11
31 12 58 5 55 19 -53 263 -30 68 -44 125 -33 136 8 8 159 42 249 56 30 4 33 1
45 -34 7 -21 10 -38 8 -38 -2 0 5 -13 17 -30 21 -31 94 -201 98 -231 4 -25 36
-44 65 -39 14 2 42 7 61 10 19 3 78 16 130 28 101 24 114 35 92 81 -29 58 -62
138 -62 149 0 7 -4 17 -8 23 -5 5 -26 52 -47 104 -21 52 -49 118 -62 147 -12
28 -23 55 -23 58 0 4 -13 36 -30 72 -16 35 -30 66 -30 68 0 3 -11 28 -24 57
-13 29 -31 69 -39 89 -18 44 -34 48 -117 32z"/>
<path d="M1069 4719 c-20 -4 -47 -10 -60 -13 -13 -2 -46 -10 -74 -16 -46 -11
-68 -15 -120 -24 -11 -2 -56 -12 -100 -21 -44 -9 -89 -18 -100 -21 -11 -2 -31
-6 -45 -9 -14 -3 -36 -8 -50 -11 -14 -2 -45 -9 -70 -15 -25 -5 -58 -12 -75
-15 -41 -8 -57 -23 -49 -47 3 -11 7 -25 8 -31 1 -6 12 -31 23 -56 11 -25 37
-85 58 -135 20 -49 45 -108 55 -130 10 -22 21 -51 25 -64 13 -42 72 -135 117
-182 63 -66 96 -86 210 -125 119 -40 204 -48 299 -27 35 7 80 15 99 17 19 2
42 6 50 9 13 5 49 14 85 22 6 2 28 6 49 9 67 11 84 17 90 33 7 17 -101 294
-118 305 -6 4 -23 5 -38 3 -16 -3 -43 -7 -60 -10 -18 -3 -40 -8 -48 -10 -8 -2
-31 -7 -50 -10 -19 -3 -55 -11 -80 -17 -147 -34 -228 4 -290 138 -49 104 -49
108 7 122 26 7 62 15 78 18 17 3 48 10 70 16 43 11 60 14 115 24 19 3 56 12
82 19 25 7 48 11 51 9 2 -2 9 2 16 9 13 16 -10 91 -54 179 -36 71 -39 73 -106
57z"/>
</g>
</svg>
